# This file uses centimeters as units for non-parametric coordinates.

v 0.118431 0.269795 0.680160
v 0.193164 0.272072 0.861363
v 0.303065 0.307112 0.997997
v 0.490194 0.385462 1.125721
v 0.667790 0.421672 1.245297
v 0.686085 0.421672 1.237293
v 0.663216 0.417221 1.168685
v 0.666646 0.400840 1.081781
v 0.675794 0.379027 1.007456
v 0.718102 0.356559 0.958287
v 0.778706 0.333364 0.937705
v 0.891909 0.296591 0.941135
v 0.983387 0.276755 0.957144
v 1.098876 0.270284 0.983443
v 1.167484 0.270284 1.015460
v 1.213223 0.270284 1.068060
v 1.226944 0.270284 1.031469
v 1.212080 0.270284 0.990304
v 1.236093 0.270284 0.928557
v 1.322996 0.270284 0.874814
v 1.495659 0.274972 0.775333
v 1.583706 0.285563 0.698720
v 1.635162 0.291897 0.678138
v 1.653457 0.296554 0.643834
v 1.765517 0.309658 0.617534
v 1.861568 0.318549 0.586661
v 1.937037 0.322815 0.547783
v 1.978202 0.323637 0.511192
v 1.930297 0.322941 0.527671
v 1.845016 0.318682 0.541394
v 1.766107 0.311903 0.538454
v 1.712684 0.306176 0.535513
v 1.648969 0.296383 0.482580
v 1.554866 0.259657 0.351228
v 1.547942 0.218881 0.199537
v 1.686868 0.220770 0.058932
v 1.807601 0.255947 -0.051812
v 1.862179 0.272871 -0.119075
v 1.906834 0.285999 -0.209219
v 1.989527 0.327774 -0.270965
v 2.063951 0.350684 -0.328303
v 1.987873 0.332242 -0.290330
v 1.923372 0.304472 -0.275688
v 1.872102 0.284847 -0.300025
v 1.843986 0.280689 -0.386347
v 1.857217 0.302415 -0.536761
v 1.900218 0.331480 -0.612901
v 1.949834 0.346540 -0.657304
v 1.953141 0.357674 -0.685566
v 1.873755 0.419280 -0.775372
v 1.843986 0.484548 -0.872619
v 1.878717 0.559258 -0.982328
v 1.906834 0.607645 -1.067937
v 1.948180 0.633215 -1.125433
v 1.958103 0.653696 -1.192013
v 1.944872 0.654074 -1.193546
v 1.910141 0.637990 -1.142171
v 1.852255 0.612450 -1.092838
v 1.772869 0.572932 -1.046201
v 1.584327 0.479277 -1.009967
v 1.485095 0.444644 -1.061966
v 1.382555 0.406642 -1.051547
v 1.280015 0.385004 -1.074594
v 1.217167 0.391830 -1.113640
v 1.063356 0.378131 -1.060859
v 0.942624 0.357933 -0.980675
v 0.831814 0.339615 -0.896657
v 0.826852 0.324861 -0.845486
v 0.767313 0.330144 -0.847956
v 0.780544 0.340239 -0.881445
v 0.778890 0.402187 -1.194282
v 0.845045 0.409757 -1.272460
v 0.830160 0.414872 -1.331032
v 0.853314 0.428068 -1.420350
v 0.916162 0.448334 -1.506221
v 0.911200 0.452028 -1.519007
v 0.828506 0.442483 -1.480205
v 0.692888 0.477962 -1.544151
v 0.623426 0.528427 -1.642801
v 0.567194 0.582954 -1.753266
v 0.502693 0.603260 -1.772274
v 0.456384 0.634541 -1.808104
v 0.451423 0.695413 -1.888258
v 0.481192 0.750912 -1.973029
v 0.487808 0.783288 -2.038682
v 0.472923 0.783920 -2.040176
v 0.436538 0.759138 -1.990718
v 0.398499 0.707151 -1.911674
v 0.330690 0.662932 -1.867443
v 0.226496 0.633277 -1.864606
v 0.115686 0.626577 -1.884744
v 0.074339 0.623925 -1.878695
v 0.013146 0.594400 -1.803445
v -0.077818 0.572133 -1.751816
v -0.205166 0.562765 -1.720126
v -0.317630 0.553225 -1.735644
v -0.415208 0.536826 -1.817163
v -0.461517 0.534200 -1.916216
v -0.473094 0.549343 -1.991428
v -0.481363 0.547493 -1.986732
v -0.491287 0.526710 -1.829688
v -0.478055 0.512630 -1.754967
v -0.491287 0.466404 -1.673593
v -0.521056 0.412056 -1.572990
v -0.524364 0.378275 -1.460363
v -0.595481 0.391003 -1.202013
v -0.640135 0.392974 -1.096507
v -0.671559 0.394241 -1.097919
v -0.699675 0.406295 -1.150979
v -0.808830 0.418077 -1.212578
v -0.931217 0.415753 -1.294860
v -1.039018 0.409433 -1.373411
v -1.089990 0.414117 -1.431154
v -1.111490 0.432075 -1.509287
v -1.128028 0.431603 -1.507687
v -1.137952 0.412876 -1.426308
v -1.200799 0.403916 -1.311578
v -1.316570 0.426377 -1.305811
v -1.419111 0.447755 -1.320749
v -1.447227 0.452726 -1.316050
v -1.524959 0.468461 -1.284847
v -1.637422 0.519390 -1.300401
v -1.725078 0.569618 -1.344072
v -1.769732 0.599293 -1.394430
v -1.773040 0.615044 -1.438488
v -1.781309 0.616852 -1.444668
v -1.792887 0.598042 -1.393110
v -1.776348 0.559411 -1.320046
v -1.736655 0.498847 -1.235116
v -1.690347 0.412854 -1.109030
v -1.683731 0.371293 -0.984810
v -1.703577 0.359976 -0.924865
v -1.769732 0.352993 -0.885916
v -1.735001 0.335744 -0.781816
v -1.724730 0.316047 -0.643949
v -1.736084 0.227419 -0.480335
v -1.800830 0.200662 -0.410240
v -1.876216 0.166709 -0.362494
v -1.959393 0.102461 -0.334324
v -2.025282 -0.000522 -0.340489
v -2.026608 -0.002927 -0.319790
v -1.972651 0.088826 -0.277125
v -1.889189 0.147524 -0.210490
v -1.789586 0.188288 -0.115187
v -1.677852 0.211261 -0.037785
v -1.579478 0.269963 0.050727
v -1.495386 0.264484 0.158873
v -1.625557 0.270284 0.363074
v -1.703577 0.270284 0.411233
v -1.786271 0.270284 0.474081
v -1.981428 0.270284 0.477388
v -2.049237 0.270284 0.427772
v -2.057507 0.270284 0.444311
v -1.997967 0.270284 0.505504
v -1.889403 0.270284 0.569125
v -1.701892 0.270284 0.611262
v -1.634872 0.270284 0.685125
v -1.558036 0.267263 0.738701
v -1.503458 0.256842 0.837934
v -1.369540 0.231545 0.905733
v -1.204120 0.202967 0.966927
v -1.146221 0.194632 1.044668
v -1.152837 0.193320 1.099246
v -1.175991 0.193320 1.133977
v -1.129683 0.193320 1.105861
v -1.068489 0.195620 1.066168
v -0.987449 0.203442 1.069476
v -0.886563 0.231725 1.036398
v -0.798907 0.270451 1.033091
v -0.696452 0.324140 1.048323
v -0.610366 0.372582 1.102553
v -0.570673 0.399851 1.175324
v -0.520722 0.414852 1.228582
v -0.461674 0.422074 1.301632
v -0.429475 0.422074 1.317426
v -0.423458 0.422074 1.307046
v -0.444670 0.422074 1.283807
v -0.439231 0.414852 1.191945
v -0.375515 0.395581 1.130669
v -0.227099 0.323211 0.978598
v -0.122472 0.280521 0.864395
v -0.062102 0.270284 0.758518
v -0.005047 0.270284 0.642776
v 0.072685 0.269678 0.631199
v -0.309576 0.368679 1.076094
v -0.023150 0.270284 0.608713
v -0.337181 0.264372 0.543667
v -0.719062 0.260659 0.485619
v -0.828423 0.253458 0.760304
v -0.961949 0.217110 0.920380
v -0.301886 0.307834 0.880350
v -0.145660 0.270284 0.708646
v -0.476333 0.391908 1.092729
v -0.482837 0.415108 1.201614
v -0.501765 0.296016 0.806577
v -0.762395 0.272240 0.925122
v -0.564277 0.343669 0.987174
v -0.423057 0.422074 1.314203
v -0.450591 0.422074 1.291747
v -0.446660 0.420153 1.236530
v -0.470415 0.420343 1.247017
v -0.491273 0.420153 1.263426
v -1.006710 0.253863 0.467639
v -1.503269 0.270211 0.515319
v -1.777700 0.270284 0.525422
v -2.054086 0.270284 0.437469
v -1.874675 0.270284 0.523086
v -1.983334 0.270284 0.492708
v -1.872317 0.270284 0.480189
v -1.669857 0.270284 0.530056
v -1.794892 0.270284 0.591491
v -1.560768 0.268562 0.254860
v -1.289580 0.263232 0.472414
v -1.161314 0.212105 0.883088
v -1.318558 0.231609 0.832256
v -1.436746 0.254158 0.768668
v 0.029621 0.270198 0.637613
v -0.530956 0.236310 0.105892
v -0.204526 0.262020 0.405190
v 0.011387 0.269934 0.582508
v -2.025980 -0.001797 -0.329597
v -0.852877 0.247187 -0.283084
v -1.554332 0.234181 -0.221976
v -1.962654 0.097900 -0.302856
v -1.885536 0.154337 -0.284228
v -1.765531 0.205509 -0.263096
v -1.313278 0.255451 -0.210964
v -1.289580 0.263232 0.472414
v -1.091515 0.238152 0.734221
v -0.366137 0.278969 -0.379118
v -1.402898 0.375020 -1.003790
v -1.158770 0.406164 -1.373123
v -1.290270 0.251721 0.147605
v -0.980555 0.236310 0.130591
v -1.046288 0.241005 -0.164311
v -1.520152 0.396843 -1.103786
v -1.595387 0.439447 -1.183669
v -1.697505 0.510906 -1.259887
v -1.752488 0.565754 -1.330804
v -1.782478 0.598848 -1.393634
v -1.775739 0.615633 -1.440505
v -1.104289 0.303573 -0.621756
v -1.232368 0.336203 -0.785486
v 0.063898 0.312089 -0.850959
v 0.325306 0.548492 -1.693021
v 0.047434 0.276064 -0.457980
v 0.008076 0.261088 -0.033718
v -0.212137 0.253988 0.005013
v 0.075244 0.268846 0.589921
v 0.614178 0.207109 0.080247
v 1.460650 0.280773 -0.684076
v 1.747322 0.487003 -0.908668
v 1.826811 0.569075 -1.013007
v 1.877854 0.610985 -1.080982
v 1.919610 0.637031 -1.137951
v 1.232124 0.216149 -0.482501
v 1.018318 0.190203 -0.288712
v 1.950783 0.306920 -0.242219
v 1.089168 0.266684 0.580745
v 1.611184 0.293885 0.568257
v 1.835007 0.317331 0.571299
v 1.735383 0.308088 0.578645
v 1.468386 0.278561 0.571673
v 1.221234 0.270284 1.015656
v 0.736246 0.254387 0.589339
v 0.404882 0.349975 1.067492
v 0.595772 0.415283 1.196807
v 0.186349 0.395107 -1.253268
v 0.258286 0.464678 -1.484332
v 1.933349 0.322914 0.536778
v 1.679401 0.414299 -0.821665
v 1.850311 0.394868 -0.714648
v 1.885883 0.378433 -0.701507
v 1.951338 0.351585 -0.670169
v 1.594883 0.362302 -0.769329
v 1.850613 0.291053 -0.461783
v 0.104404 0.336236 -0.984711
v 0.228060 0.434227 -1.387655
v -0.557172 0.382612 -1.340698
v 0.156037 0.371772 -1.154269
v 1.331077 0.243227 -0.570265
v -0.450820 0.442619 1.291456
v -0.461964 0.442614 1.301353
v -0.429475 0.442622 1.317426
v -0.423057 0.442622 1.314203
v -0.374299 0.415163 1.124731
v -0.477072 0.411612 1.086946
v -0.483980 0.435341 1.198213
v -0.439283 0.435042 1.188369
v -0.471231 0.440826 1.245593
v -0.492334 0.440621 1.262210
v -0.224497 0.342833 0.973101
v -0.300407 0.327842 0.875906
v -0.307270 0.388018 1.069576
v -0.120027 0.300572 0.861033
v -1.997967 0.290833 0.505504
v -1.889403 0.290833 0.569125
v -1.874675 0.290833 0.523086
v -1.983334 0.290833 0.492708
v -0.702085 0.343070 1.042872
v -0.567582 0.362930 0.980824
v -0.767637 0.291966 0.922748
v -0.806445 0.289217 1.029662
v -0.614232 0.391815 1.096500
v -0.573406 0.419614 1.170489
v -0.522614 0.435058 1.225588
v -0.060937 0.290732 0.757676
v -0.144909 0.290781 0.707398
v -0.991165 0.223537 1.070745
v -0.964729 0.237393 0.922144
v -1.069679 0.216085 1.067197
v -0.893424 0.250935 1.035654
v -0.719667 0.281176 0.484663
v -0.830375 0.273913 0.760366
v -0.502947 0.316200 0.802907
v -0.337376 0.284870 0.542231
v -0.444833 0.442614 1.283438
v -0.423458 0.442622 1.307046
v -0.447108 0.440622 1.234983
v -1.502677 0.290749 0.515577
v -1.560320 0.289103 0.254611
v -1.625433 0.290832 0.362983
v -1.981428 0.290833 0.477388
v -1.872317 0.290833 0.480189
v -2.054086 0.290833 0.437469
v -2.049237 0.290833 0.427772
v -2.057507 0.290833 0.444311
v -1.556773 0.287749 0.739325
v -1.634605 0.290827 0.685325
v -1.777700 0.290833 0.525422
v -1.786271 0.290833 0.474081
v -1.669853 0.290833 0.530056
v -1.703574 0.290833 0.411234
v -1.794892 0.290833 0.591491
v -1.701888 0.290833 0.611261
v -1.501047 0.277188 0.839336
v -1.434429 0.274521 0.770163
v -1.583615 0.289485 0.047955
v -1.557897 0.254355 -0.220382
v -1.683598 0.230702 -0.039245
v -1.367045 0.251816 0.907950
v -1.316619 0.251942 0.834507
v -1.161177 0.232493 0.885645
v -1.203053 0.223323 0.969271
v -1.146411 0.215116 1.046041
v -1.153012 0.213863 1.099513
v -1.129858 0.213863 1.106129
v -1.091855 0.258589 0.736328
v -1.006652 0.274411 0.467542
v -1.288612 0.283693 0.474047
v 0.011760 0.290476 0.582130
v 0.029820 0.290744 0.637423
v -0.023265 0.290830 0.608414
v -0.005004 0.290832 0.642728
v -0.205101 0.282550 0.404533
v -1.726568 0.335715 -0.639431
v -1.740277 0.247061 -0.476490
v -1.313421 0.275954 -0.209603
v -1.974194 0.116207 -0.333807
v -1.977420 0.112190 -0.302744
v -2.042600 0.010540 -0.340630
v -2.043200 0.009333 -0.330719
v -1.987354 0.102637 -0.277694
v -2.043731 0.008268 -0.321892
v -1.886333 0.184360 -0.361043
v -1.895873 0.172057 -0.283056
v -1.899496 0.165129 -0.209590
v -1.806682 0.220159 -0.408503
v -1.771167 0.225231 -0.261877
v -1.795515 0.207789 -0.114483
v -1.495212 0.284977 0.157725
v -1.289194 0.272235 0.147081
v 0.064171 0.332452 -0.848215
v 0.767571 0.350123 -0.843335
v 0.779889 0.360456 -0.877835
v 0.104478 0.356583 -0.981844
v -1.682588 0.391000 -0.979305
v -1.703221 0.380162 -0.921054
v -1.288743 0.283754 0.471768
v -0.531469 0.256850 0.105596
v -1.232500 0.356422 -0.781826
v -1.045734 0.261514 -0.163167
v -1.103710 0.323826 -0.618329
v 1.231277 0.236439 -0.479360
v 1.329827 0.263398 -0.566550
v 0.942578 0.377483 -0.974359
v 0.832414 0.359275 -0.890730
v -1.138230 0.433117 -1.422946
v -1.090268 0.434355 -1.427774
v -1.111568 0.452068 -1.504539
v -1.128108 0.451597 -1.502945
v -1.591753 0.457698 -1.174975
v -1.687985 0.431081 -1.100089
v -1.693997 0.528098 -1.249259
v -1.734305 0.515940 -1.224058
v -1.750978 0.583520 -1.320661
v -1.775878 0.577002 -1.309639
v -1.782801 0.617714 -1.385523
v -1.793733 0.616798 -1.384964
v -1.776470 0.634977 -1.433628
v -1.782390 0.636197 -1.437829
v -1.200027 0.424125 -1.309444
v -0.932166 0.436244 -1.294246
v -1.039647 0.429921 -1.372431
v -1.159400 0.426653 -1.372149
v -1.518212 0.416503 -1.098135
v -1.313388 0.446391 -1.303344
v -1.520118 0.487110 -1.279817
v -1.415072 0.467893 -1.320353
v -1.443188 0.472863 -1.315660
v -1.402528 0.395221 -1.000045
v -0.980197 0.256847 0.129998
v -0.852958 0.267648 -0.281190
v -0.671048 0.414131 -1.092792
v -0.699620 0.426295 -1.146301
v -1.734522 0.356030 -0.778619
v -1.769732 0.373231 -0.882362
v -1.632560 0.536568 -1.290317
v -1.722407 0.587379 -1.334302
v -1.769295 0.618143 -1.386447
v -1.773424 0.634385 -1.431565
v -0.212705 0.274528 0.005217
v -0.809518 0.438345 -1.209700
v -0.639214 0.413069 -1.092548
v 0.185578 0.415353 -1.249838
v -0.525627 0.398331 -1.456519
v -0.557239 0.403044 -1.338575
v 0.155679 0.392145 -1.151614
v 0.008772 0.281624 -0.033555
v 0.048120 0.296510 -0.456048
v -0.366340 0.299430 -0.377233
v 0.076123 0.289367 0.589324
v 0.073064 0.290219 0.630842
v 1.878348 0.437052 -0.766295
v 1.889805 0.396461 -0.692527
v 1.954486 0.369847 -0.661345
v 1.956626 0.375893 -0.676776
v 1.822928 0.586913 -1.003708
v 1.875919 0.577049 -0.972651
v 1.905202 0.626296 -1.059650
v 1.875613 0.629719 -1.072927
v 1.767910 0.590670 -1.037329
v 1.849386 0.631183 -1.085064
v 1.867026 0.304391 -0.297698
v 1.859711 0.293256 -0.118422
v 1.901571 0.305548 -0.207055
v 1.845123 0.501940 -0.862877
v 1.850741 0.413019 -0.705113
v 1.673631 0.431631 -0.812335
v 1.577146 0.496211 -1.000947
v 1.742277 0.504250 -0.898828
v 1.216130 0.411260 -1.107191
v 1.457750 0.300346 -0.678528
v 1.276056 0.403610 -1.067060
v 1.376585 0.424585 -1.043535
v 1.947647 0.652592 -1.118745
v 1.918766 0.656460 -1.131346
v 1.908965 0.657415 -1.135711
v 1.957955 0.673352 -1.186038
v 1.944551 0.673752 -1.187649
v 0.827921 0.344621 -0.839954
v 1.018408 0.210680 -0.286999
v 1.983218 0.351562 -0.285700
v 1.984873 0.347110 -0.266402
v 2.061589 0.370501 -0.323449
v 0.615018 0.227614 0.079205
v 1.547077 0.239225 0.197079
v 1.685307 0.241078 0.059804
v 1.805107 0.276189 -0.049969
v 1.943439 0.325711 -0.238404
v 1.916028 0.323239 -0.271757
v 1.764037 0.332342 0.538834
v 1.733225 0.328515 0.579193
v 1.833448 0.337812 0.571874
v 1.843627 0.339172 0.541895
v 0.736404 0.274783 0.586853
v 0.118878 0.290333 0.679724
v 1.929695 0.343473 0.528021
v 1.932745 0.343451 0.537096
v 1.977983 0.344183 0.511388
v 1.763489 0.330091 0.618274
v 1.860180 0.339039 0.587203
v 1.710201 0.326568 0.535382
v 1.608575 0.314262 0.567814
v 1.650715 0.316894 0.644717
v 1.088979 0.287171 0.579164
v 1.466709 0.298998 0.570362
v 1.552567 0.279834 0.348274
v 1.236253 0.290816 0.929005
v 0.983786 0.297258 0.956928
v 1.099090 0.290817 0.983976
v 1.212293 0.290817 0.990837
v 1.581597 0.305988 0.699506
v 1.632487 0.312242 0.679090
v 1.646065 0.316650 0.481111
v 1.494359 0.295458 0.775842
v 1.322664 0.290827 0.874876
v 1.167484 0.290833 1.015460
v 1.221234 0.290833 1.015656
v 1.213223 0.290833 1.068060
v 1.226944 0.290833 1.031469
v 0.895241 0.316285 0.937861
v 0.192436 0.292028 0.857852
v 0.661427 0.437446 1.166052
v 0.593982 0.435508 1.194174
v 0.666849 0.442168 1.244163
v 0.685144 0.442168 1.236158
v 0.780900 0.352500 0.931890
v 0.300443 0.326010 0.990474
v 0.715481 0.375457 0.950764
v 0.401517 0.368806 1.060073
v 0.672429 0.397859 1.000038
v 0.487180 0.405060 1.120471
v 0.663632 0.420438 1.076532
v 1.063310 0.397757 -1.054798
v -0.077612 0.591096 -1.743914
v 0.257861 0.483549 -1.476213
v 0.324711 0.566833 -1.683778
v 0.012242 0.613650 -1.796533
v -0.594686 0.411369 -1.199468
v 0.844559 0.430115 -1.269847
v 0.830080 0.435111 -1.327744
v 0.828933 0.462022 -1.473996
v 0.853517 0.448039 -1.415521
v 0.916324 0.468247 -1.501153
v 0.911362 0.471929 -1.513891
v 0.227174 0.453669 -1.381063
v 0.396891 0.723936 -1.900034
v 0.449816 0.712253 -1.876698
v 0.480591 0.768840 -1.963101
v 0.435936 0.777031 -1.980726
v 0.623673 0.547032 -1.634109
v 0.567636 0.600144 -1.742374
v 0.223410 0.651452 -1.856186
v 0.113948 0.646221 -1.878971
v 0.072601 0.643575 -1.872945
v 0.502795 0.619529 -1.759820
v 0.327392 0.679373 -1.855668
v 0.454894 0.651105 -1.796087
v 0.487656 0.801683 -2.029530
v 0.472771 0.802312 -2.031019
v -0.207036 0.580991 -1.711274
v 0.693549 0.496759 -1.535899
v -0.524165 0.430652 -1.565150
v -0.491772 0.546946 -1.827200
v -0.462002 0.554402 -1.913442
v -0.470997 0.569540 -1.988188
v -0.479266 0.567693 -1.983510
v -0.322495 0.571261 -1.727371
v -0.496152 0.484560 -1.665581
v -0.419496 0.556265 -1.812753
v -0.482344 0.532121 -1.750792
v -1.175991 0.213868 1.133977
v 1.936426 0.343348 0.548063
v 1.477865 0.461857 -1.053507
v 1.589308 0.380313 -0.761194
v 1.857346 0.320949 -0.528862
v 1.903645 0.349698 -0.604099
v 1.952645 0.364840 -0.648438
v 1.847463 0.310629 -0.456846
v 0.778268 0.422349 -1.190428
v 1.841522 0.300971 -0.384237
v 0.062438 0.265103 0.588597
v 0.037785 0.260389 0.580237
v 0.010809 0.260389 0.583890
v -0.003944 0.265103 0.595331
v -0.014401 0.272730 0.609897
v -0.003944 0.280357 0.595331
v 0.010809 0.285071 0.583890
v 0.037785 0.285071 0.580237
v 0.062438 0.280357 0.588597
v 0.072896 0.272730 0.598077
v 0.071315 0.256896 0.718011
v 0.057968 0.247111 0.719818
v 0.041471 0.247111 0.722052
v 0.028124 0.256896 0.723860
v 0.023025 0.272730 0.724550
v 0.028124 0.288564 0.723860
v 0.041471 0.298349 0.722052
v 0.057968 0.298349 0.719818
v 0.071315 0.288564 0.718011
v 0.076414 0.272730 0.717321
v 0.017434 0.259632 0.681016
v 0.031250 0.251537 0.675998
v 0.051241 0.251537 0.673291
v 0.068356 0.259632 0.674873
v 0.075241 0.272730 0.677573
v 0.068356 0.285828 0.674873
v 0.051241 0.293923 0.673291
v 0.031250 0.293923 0.675998
v 0.017434 0.285828 0.681016
v 0.010550 0.272730 0.686332
v 0.006746 0.262367 0.638174
v 0.021029 0.255963 0.629944
v 0.044513 0.255963 0.626764
v 0.065397 0.262367 0.631735
v 0.074068 0.272730 0.637825
v 0.065397 0.283093 0.631735
v 0.044513 0.289497 0.626764
v 0.021029 0.289497 0.629944
v 0.006746 0.283093 0.638174
v -0.001926 0.272730 0.648115
v 0.098689 0.259384 0.880051
v 0.087439 0.251136 0.881575
v 0.073533 0.251136 0.883458
v 0.062283 0.259384 0.884981
v 0.057986 0.272730 0.885563
v 0.062283 0.286076 0.884981
v 0.073533 0.294324 0.883458
v 0.087439 0.294324 0.881575
v 0.098689 0.286076 0.880051
v 0.102987 0.272730 0.879469
v 0.151776 0.261384 1.104937
v 0.142545 0.254372 1.107755
v 0.131135 0.254372 1.111239
v 0.121904 0.261384 1.114057
v 0.118379 0.272730 1.115134
v 0.121904 0.284076 1.114057
v 0.131135 0.291088 1.111239
v 0.142545 0.291088 1.107755
v 0.151776 0.284076 1.104937
v 0.155302 0.272730 1.103860
v 0.233176 0.261384 1.352269
v 0.223945 0.254372 1.355085
v 0.212535 0.254372 1.358570
v 0.203305 0.261384 1.361388
v 0.199779 0.272730 1.362464
v 0.203305 0.284076 1.361388
v 0.212535 0.291088 1.358570
v 0.223945 0.291088 1.355085
v 0.233176 0.284076 1.352269
v 0.236702 0.272730 1.351192
v 0.329257 0.261384 1.646056
v 0.320229 0.254372 1.649466
v 0.309068 0.254372 1.653681
v 0.300040 0.261384 1.657092
v 0.296591 0.272730 1.658394
v 0.300040 0.284076 1.657092
v 0.309068 0.291088 1.653681
v 0.320229 0.291088 1.649466
v 0.329257 0.284076 1.646056
v 0.332706 0.272730 1.644753
v 0.454799 0.258782 1.921247
v 0.443699 0.250161 1.925439
v 0.429979 0.250161 1.930621
v 0.418880 0.258782 1.934813
v 0.414640 0.272730 1.936415
v 0.418880 0.286678 1.934813
v 0.429979 0.295298 1.930621
v 0.443699 0.295298 1.925439
v 0.454799 0.286678 1.921247
v 0.459038 0.272730 1.919645
v 0.544683 0.254879 2.107133
v 0.530895 0.243846 2.113494
v 0.513851 0.243846 2.121357
v 0.500062 0.254879 2.127720
v 0.494796 0.272730 2.130149
v 0.500062 0.290581 2.127720
v 0.513851 0.301614 2.121357
v 0.530895 0.301614 2.113494
v 0.544683 0.290581 2.107133
v 0.549950 0.272730 2.104704
v 0.601060 0.248373 2.166634
v 0.583580 0.233320 2.177755
v 0.561973 0.233320 2.191505
v 0.544493 0.248373 2.202629
v 0.537816 0.272730 2.206877
v 0.544493 0.297087 2.202629
v 0.561973 0.312140 2.191505
v 0.583580 0.312140 2.177755
v 0.601060 0.297087 2.166634
v 0.607737 0.272730 2.162385
v 0.639245 0.248373 2.215509
v 0.621764 0.233320 2.226631
v 0.600158 0.233320 2.240381
v 0.582678 0.248373 2.251505
v 0.576001 0.272730 2.255754
v 0.582678 0.297087 2.251505
v 0.600158 0.312140 2.240381
v 0.621764 0.312140 2.226631
v 0.639245 0.297087 2.215509
v 0.645921 0.272730 2.211261
v 0.642415 0.257481 2.240567
v 0.631471 0.248056 2.247531
v 0.617944 0.248056 2.256140
v 0.607000 0.257481 2.263104
v 0.602820 0.272730 2.265764
v 0.607000 0.287979 2.263104
v 0.617944 0.297404 2.256140
v 0.631471 0.297404 2.247531
v 0.642415 0.287979 2.240567
v 0.646595 0.272730 2.237908
v 0.634402 0.266346 2.251102
v 0.630228 0.262752 2.253758
v 0.625068 0.262752 2.257041
v 0.620895 0.266346 2.259697
v 0.619300 0.272162 2.260712
v 0.620895 0.277978 2.259697
v 0.625068 0.281572 2.257041
v 0.630228 0.281572 2.253758
v 0.634402 0.277978 2.251102
v 0.635996 0.272162 2.250088
v 0.627648 0.272162 2.255400
v -1.557405 0.277506 0.739013
v -1.634739 0.280556 0.685225
v -1.701890 0.280558 0.611261
v -1.794892 0.280558 0.591491
v -1.889403 0.280558 0.569125
v -1.997967 0.280558 0.505504
v -2.057507 0.280558 0.444311
v -2.054086 0.280558 0.437469
v -2.049237 0.280558 0.427772
v -1.981428 0.280558 0.477388
v -1.872317 0.280558 0.480189
v -1.786271 0.280558 0.474081
v -1.703576 0.280558 0.411234
v -1.625495 0.280558 0.363028
v -1.560544 0.278832 0.254736
v -1.495299 0.274730 0.158299
v -1.581547 0.279724 0.049341
v -1.680725 0.220982 -0.038515
v -1.792551 0.198039 -0.114835
v -1.894342 0.156326 -0.210040
v -1.980003 0.095731 -0.277409
v -2.035169 0.002671 -0.320841
v -2.034590 0.003768 -0.330158
v -2.033941 0.005009 -0.340559
v -1.966793 0.109334 -0.334065
v -1.881275 0.175535 -0.361769
v -1.803756 0.210411 -0.409371
v -1.738181 0.237240 -0.478412
v -1.725649 0.325881 -0.641690
v -1.734761 0.345887 -0.780218
v -1.769732 0.363112 -0.884139
v -1.703399 0.370069 -0.922959
v -1.683159 0.381146 -0.982058
v -1.689166 0.421968 -1.104559
v -1.735480 0.507394 -1.229587
v -1.776113 0.568207 -1.314842
v -1.793310 0.607420 -1.389037
v -1.781849 0.626524 -1.441248
v -1.776104 0.625305 -1.437067
v -1.773232 0.624714 -1.435027
v -1.769514 0.608718 -1.390439
v -1.723742 0.578498 -1.339187
v -1.634991 0.527979 -1.295359
v -1.522538 0.477786 -1.282332
v -1.445207 0.462794 -1.315855
v -1.417091 0.457824 -1.320551
v -1.314979 0.436384 -1.304578
v -1.200413 0.414020 -1.310511
v -1.159085 0.416409 -1.372636
v -1.138091 0.422997 -1.424627
v -1.128068 0.441600 -1.505316
v -1.111529 0.442071 -1.506913
v -1.090129 0.424236 -1.429464
v -1.039332 0.419677 -1.372921
v -0.931691 0.425998 -1.294553
v -0.809174 0.428211 -1.211139
v -0.699647 0.416295 -1.148640
v -0.671304 0.404186 -1.095356
v -0.639674 0.403021 -1.094527
v -0.595083 0.401186 -1.200740
v -0.557205 0.392828 -1.339636
v -0.524996 0.388303 -1.458441
v -0.522611 0.421354 -1.569070
v -0.493719 0.475482 -1.669587
v -0.480200 0.522376 -1.752879
v -0.491529 0.536828 -1.828444
v -0.480315 0.557593 -1.985121
v -0.472045 0.559441 -1.989808
v -0.461759 0.544301 -1.914829
v -0.417352 0.546546 -1.814958
v -0.320062 0.562243 -1.731508
v -0.206101 0.571878 -1.715700
v -0.077715 0.581615 -1.747865
v 0.012694 0.604025 -1.799989
v 0.073470 0.633750 -1.875820
v 0.114817 0.636399 -1.881857
v 0.224953 0.642365 -1.860396
v 0.329041 0.671153 -1.861556
v 0.397695 0.715543 -1.905854
v 0.436237 0.768085 -1.985722
v 0.472847 0.793116 -2.035598
v 0.487732 0.792486 -2.034106
v 0.480891 0.759876 -1.968065
v 0.450619 0.703833 -1.882478
v 0.455639 0.642823 -1.802095
v 0.502744 0.611394 -1.766047
v 0.567415 0.591549 -1.747820
v 0.623549 0.537730 -1.638455
v 0.693219 0.487361 -1.540025
v 0.828719 0.452253 -1.477100
v 0.911281 0.461978 -1.516449
v 0.916243 0.458290 -1.503687
v 0.853416 0.438054 -1.417936
v 0.830120 0.424992 -1.329388
v 0.844802 0.419936 -1.271153
v 0.778579 0.412268 -1.192355
v 0.780216 0.350347 -0.879640
v 0.767442 0.340133 -0.845645
v 0.827386 0.334741 -0.842720
v 0.832114 0.349445 -0.893694
v 0.942601 0.367708 -0.977517
v 1.063333 0.387944 -1.057828
v 1.216648 0.401545 -1.110416
v 1.278035 0.394307 -1.070827
v 1.379570 0.415613 -1.047541
v 1.481480 0.453251 -1.057736
v 1.580737 0.487744 -1.005457
v 1.770390 0.581801 -1.041765
v 1.850821 0.621816 -1.088951
v 1.909553 0.647703 -1.138941
v 1.944712 0.663913 -1.190598
v 1.958029 0.663524 -1.189025
v 1.947914 0.642903 -1.122089
v 1.906018 0.616970 -1.063793
v 1.877318 0.568154 -0.977489
v 1.844554 0.493244 -0.867748
v 1.876052 0.428166 -0.770833
v 1.954884 0.366783 -0.681171
v 1.952912 0.360716 -0.665757
v 1.951240 0.355690 -0.652871
v 1.901931 0.340589 -0.608500
v 1.857281 0.311682 -0.532812
v 1.849038 0.300841 -0.459315
v 1.842754 0.290830 -0.385292
v 1.869564 0.294619 -0.298861
v 1.919700 0.313855 -0.273723
v 1.985546 0.341902 -0.288015
v 2.062770 0.360592 -0.325876
v 1.987200 0.337442 -0.268683
v 1.947111 0.316315 -0.240312
v 1.904202 0.295774 -0.208137
v 1.860945 0.283063 -0.118749
v 1.806354 0.266068 -0.050890
v 1.686087 0.230924 0.059368
v 1.547509 0.229053 0.198308
v 1.553716 0.269746 0.349751
v 1.647517 0.306516 0.481846
v 1.711442 0.316372 0.535447
v 1.765072 0.322122 0.538644
v 1.844322 0.328927 0.541645
v 1.929996 0.333207 0.527846
v 1.978092 0.333910 0.511290
v 1.936731 0.333081 0.547923
v 1.860874 0.328794 0.586932
v 1.764503 0.319874 0.617904
v 1.652086 0.306724 0.644275
v 1.633824 0.302070 0.678614
v 1.582652 0.295776 0.699113
v 1.495009 0.285215 0.775588
v 1.322830 0.280556 0.874845
v 1.236173 0.280550 0.928781
v 1.212186 0.280550 0.990570
v 1.221234 0.280558 1.015656
v 1.226944 0.280558 1.031469
v 1.213223 0.280558 1.068060
v 1.167484 0.280558 1.015460
v 1.098983 0.280550 0.983710
v 0.983586 0.287006 0.957036
v 0.893575 0.306438 0.939498
v 0.779803 0.342932 0.934797
v 0.716792 0.366008 0.954525
v 0.674111 0.388443 1.003747
v 0.665139 0.410639 1.079157
v 0.662321 0.427333 1.167369
v 0.685615 0.431920 1.236725
v 0.667319 0.431920 1.244730
v 0.594877 0.425396 1.195490
v 0.488687 0.395261 1.123096
v 0.403199 0.359390 1.063782
v 0.301754 0.316561 0.994236
v 0.192800 0.282050 0.859608
v 0.118654 0.280064 0.679942
v 0.072875 0.279949 0.631020
v 0.029721 0.280471 0.637518
v -0.005026 0.280558 0.642752
v -0.061519 0.280508 0.758097
v -0.121250 0.290546 0.862714
v -0.225798 0.333022 0.975849
v -0.308423 0.378349 1.072835
v -0.374907 0.405372 1.127700
v -0.439257 0.424947 1.190157
v -0.446884 0.430387 1.235757
v -0.444751 0.432344 1.283623
v -0.423458 0.432348 1.307046
v -0.423057 0.432348 1.314203
v -0.429475 0.432348 1.317426
v -0.461819 0.432344 1.301492
v -0.491804 0.430387 1.262818
v -0.521668 0.424955 1.227085
v -0.572039 0.409733 1.172907
v -0.612299 0.382199 1.099527
v -0.699268 0.333605 1.045598
v -0.802676 0.279834 1.031376
v -0.889993 0.241330 1.036026
v -0.989307 0.213490 1.070110
v -1.069084 0.205852 1.066683
v -1.129770 0.203591 1.105995
v -1.175991 0.203594 1.133977
v -1.152924 0.203591 1.099379
v -1.146316 0.204874 1.045355
v -1.203587 0.213145 0.968099
v -1.368293 0.241681 0.906842
v -1.502253 0.267015 0.838635
vt 0.709253 0.266389
vt 0.710819 0.262625
vt 0.718080 0.270289
vt 0.717364 0.271211
vt 0.681688 0.296368
vt 0.670743 0.279699
vt 0.693304 0.268142
vt 0.691592 0.274654
vt 0.701279 0.267265
vt 0.703201 0.261052
vt 0.664022 0.336042
vt 0.639635 0.321179
vt 0.671252 0.319806
vt 0.647386 0.373242
vt 0.407484 0.007267
vt 0.432604 0.026425
vt 0.423351 0.034472
vt 0.406051 0.011485
vt 0.635535 0.232177
vt 0.621846 0.288228
vt 0.606424 0.248513
vt 0.624022 0.215196
vt 0.655212 0.249070
vt 0.674097 0.251121
vt 0.695583 0.259479
vt 0.626248 0.397538
vt 0.612115 0.381334
vt 0.456036 0.119108
vt 0.599693 0.300531
vt 0.615257 0.172073
vt 0.593787 0.205807
vt 0.607475 0.155194
vt 0.617064 0.196337
vt 0.462855 0.289279
vt 0.708349 0.268563
vt 0.716205 0.272702
vt 0.699970 0.271609
vt 0.410999 0.099292
vt 0.402972 0.013227
vt 0.413464 0.037686
vt 0.388167 0.001322
vt 0.386536 0.003197
vt 0.389317 0.000000
vt 0.495326 0.080093
vt -0.000000 -0.000000
vt 0.467096 0.066317
vt 0.430949 0.052191
vt 0.413234 0.077872
vt 0.521118 0.082985
vt 0.508539 0.100351
vt 0.346388 0.132499
vt 0.289121 0.163141
vt 0.323150 0.124864
vt 0.545042 0.102227
vt 0.532810 0.120501
vt 0.565140 0.161564
vt 0.573469 0.134371
vt 0.596128 0.140604
vt 0.607113 0.134434
vt 0.612448 0.126494
vt 0.610538 0.138762
vt 0.612630 0.425278
vt 0.592251 0.415599
vt 0.598476 0.408329
vt 0.610695 0.417482
vt 0.183752 0.167596
vt 0.166329 0.454387
vt 0.238396 0.076814
vt 0.232232 0.080365
vt 0.220816 0.052685
vt 0.222952 0.051588
vt 0.242700 0.071948
vt 0.224876 0.050601
vt 0.249888 0.095855
vt 0.234140 0.100897
vt 0.266274 0.091334
vt 0.265002 0.121777
vt 0.231374 0.131966
vt 0.293926 0.103708
vt 0.377772 0.144974
vt 0.315069 0.213389
vt 0.321730 0.196185
vt 0.279529 0.292624
vt 0.192872 0.435661
vt 0.361434 0.711744
vt 0.117144 0.204906
vt 0.131003 0.177871
vt 0.156462 0.175981
vt 0.467080 0.287777
vt 0.221481 0.364277
vt 0.134426 0.265624
vt 0.236703 0.236049
vt 0.251844 0.315324
vt 0.341051 0.793537
vt 0.488446 0.772840
vt 0.472683 0.840300
vt 0.342927 0.830891
vt 0.615034 0.434962
vt 0.071980 0.358826
vt 0.075119 0.369421
vt 0.056423 0.371802
vt 0.055328 0.368154
vt 0.071196 0.295698
vt 0.054538 0.253205
vt 0.048311 0.244774
vt 0.054357 0.217682
vt 0.054357 0.217682
vt 0.037847 0.237473
vt 0.028739 0.231117
vt 0.029866 0.217943
vt 0.029866 0.217943
vt 0.019841 0.228694
vt 0.012574 0.226714
vt 0.010901 0.221665
vt 0.010901 0.221665
vt 0.009164 0.227853
vt 0.002124 0.230204
vt 0.000000 0.229030
vt 0.090315 0.335685
vt 0.116672 0.391641
vt 0.090894 0.376854
vt 0.080355 0.348255
vt 0.096410 0.285698
vt 0.071709 0.287429
vt 0.064094 0.266143
vt 0.088886 0.214921
vt 0.080199 0.311158
vt 0.067035 0.291169
vt 0.167036 0.428267
vt 0.133555 0.387865
vt 0.473460 0.285511
vt 0.331788 0.170209
vt 0.462855 0.289279
vt 0.128374 0.195355
vt 0.553233 0.368085
vt 0.181055 0.429455
vt 0.144184 0.410633
vt 0.367232 0.429536
vt 0.141972 0.473862
vt 0.214806 0.488629
vt 0.096449 0.501657
vt 0.285785 0.483880
vt 0.254985 0.433479
vt 0.259702 0.501283
vt 0.364430 0.717997
vt 0.562754 0.423727
vt 0.498331 0.949239
vt 0.522886 0.915333
vt 0.509825 0.931379
vt 0.504349 0.945937
vt 0.425653 0.956314
vt 0.444646 0.944322
vt 0.421051 0.962662
vt 0.412874 0.970009
vt 0.392461 0.967894
vt 0.385605 0.985070
vt 0.574641 0.897678
vt 0.553965 0.899236
vt 0.470372 0.941091
vt 0.392877 0.901306
vt 0.445553 0.934987
vt 0.395775 0.922249
vt 0.356827 0.840737
vt 0.369641 0.860871
vt 0.374746 0.884184
vt 0.402836 0.977144
vt 0.402420 0.981212
vt 0.376727 0.997342
vt 0.392783 0.991540
vt 0.378234 1.000000
vt 0.356559 0.729744
vt 0.503195 0.709725
vt 0.348021 0.760734
vt 0.584396 0.941212
vt 0.596947 0.897088
vt 0.590507 0.920243
vt 0.531072 0.590426
vt 0.667633 0.780200
vt 0.643938 0.802272
vt 0.634840 0.826933
vt 0.621913 0.862193
vt 0.612316 0.879680
vt 0.584026 0.906517
vt 0.604148 0.888932
vt 0.586158 0.921627
vt 0.367337 0.724068
vt 0.748453 0.811261
vt 0.755660 0.798397
vt 0.757033 0.809912
vt 0.755408 0.837551
vt 0.644203 0.570171
vt 0.760049 0.794790
vt 0.761900 0.817837
vt 0.760258 0.837222
vt 0.756103 0.849140
vt 0.755829 0.768752
vt 0.740651 0.799413
vt 0.752707 0.773634
vt 0.761498 0.761879
vt 0.689446 0.653519
vt 0.735402 0.740776
vt 0.702284 0.777087
vt 0.790666 0.644971
vt 0.752274 0.581438
vt 0.763658 0.599419
vt 0.800685 0.644524
vt 0.769900 0.723832
vt 0.761363 0.749179
vt 0.738056 0.790764
vt 0.775890 0.678560
vt 0.779682 0.655454
vt 0.779321 0.621588
vt 0.804721 0.640765
vt 0.792098 0.633326
vt 0.807238 0.638420
vt 0.741656 0.557755
vt 0.629403 0.440375
vt 0.797033 0.511957
vt 0.738677 0.468654
vt 0.756280 0.480205
vt 0.797130 0.507381
vt 0.740722 0.543117
vt 0.674322 0.440375
vt 0.747442 0.529858
vt 0.695297 0.446548
vt 0.762389 0.521426
vt 0.712871 0.451720
vt 0.780500 0.513106
vt 0.322564 0.729825
vt 0.287464 0.745121
vt 0.084961 0.638818
vt 0.176783 0.603776
vt 0.141358 0.711054
vt 0.073139 0.658863
vt 0.276777 0.765928
vt 0.230000 0.801619
vt 0.263213 0.767832
vt 0.246315 0.780541
vt 0.233236 0.801514
vt 0.071850 0.749180
vt 0.119834 0.734309
vt 0.098728 0.741784
vt 0.063116 0.761801
vt 0.204268 0.758114
vt 0.175073 0.752935
vt 0.094836 0.713461
vt 0.088535 0.690231
vt 0.075350 0.668200
vt 0.144232 0.751716
vt 0.133340 0.740219
vt 0.088498 0.732884
vt 0.079956 0.756906
vt 0.064767 0.764810
vt 0.088926 0.614634
vt 0.222521 0.773545
vt 0.075574 0.517645
vt 0.024791 0.540640
vt 0.048935 0.547491
vt 0.025618 0.545628
vt 0.008839 0.549678
vt 0.057459 0.528396
vt 0.084806 0.584764
vt 0.072527 0.561950
vt 0.040536 0.532096
vt 0.758728 0.834966
vt 0.462805 0.904324
vt 0.510333 0.921082
vt 0.509585 0.933699
vt 0.507334 0.938000
vt 0.466622 0.879587
vt 0.564285 0.898458
vt 0.258119 0.357462
vt 0.192759 0.555395
vt 0.117450 0.488834
vt 0.230828 0.440108
vt 0.481621 0.802050
vt 0.709253 0.266389
vt 0.710819 0.262625
vt 0.718080 0.270289
vt 0.717364 0.271211
vt 0.681688 0.296368
vt 0.670743 0.279699
vt 0.693304 0.268142
vt 0.691592 0.274654
vt 0.701279 0.267265
vt 0.703201 0.261052
vt 0.664022 0.336042
vt 0.639635 0.321179
vt 0.671252 0.319806
vt 0.647386 0.373242
vt 0.407484 0.007267
vt 0.432604 0.026425
vt 0.423351 0.034472
vt 0.406051 0.011485
vt 0.635535 0.232177
vt 0.621846 0.288228
vt 0.606424 0.248513
vt 0.624022 0.215196
vt 0.655212 0.249070
vt 0.674097 0.251121
vt 0.695583 0.259479
vt 0.626248 0.397538
vt 0.612115 0.381334
vt 0.615257 0.172073
vt 0.593787 0.205807
vt 0.607475 0.155194
vt 0.617064 0.196337
vt 0.456036 0.119108
vt 0.462855 0.289279
vt 0.599693 0.300531
vt 0.708349 0.268563
vt 0.716205 0.272702
vt 0.699970 0.271609
vt 0.410999 0.099292
vt 0.402972 0.013227
vt 0.413464 0.037686
vt 0.388167 0.001322
vt 0.386536 0.003197
vt 0.389317 0.000000
vt 0.495326 0.080093
vt -0.000000 -0.000000
vt 0.467096 0.066317
vt 0.430949 0.052191
vt 0.413234 0.077872
vt 0.521118 0.082985
vt 0.508539 0.100351
vt 0.346388 0.132499
vt 0.289121 0.163141
vt 0.323150 0.124864
vt 0.545042 0.102227
vt 0.532810 0.120501
vt 0.565140 0.161564
vt 0.573469 0.134371
vt 0.596128 0.140604
vt 0.607113 0.134434
vt 0.610538 0.138762
vt 0.612630 0.425278
vt 0.592251 0.415599
vt 0.598476 0.408329
vt 0.610695 0.417482
vt 0.183752 0.167596
vt 0.166329 0.454387
vt 0.238396 0.076814
vt 0.232232 0.080365
vt 0.220816 0.052685
vt 0.222952 0.051588
vt 0.242700 0.071948
vt 0.224876 0.050601
vt 0.249888 0.095855
vt 0.234140 0.100897
vt 0.266274 0.091334
vt 0.265002 0.121777
vt 0.231374 0.131966
vt 0.293926 0.103708
vt 0.377772 0.144974
vt 0.315069 0.213389
vt 0.321730 0.196185
vt 0.279529 0.292624
vt 0.192872 0.435661
vt 0.361434 0.711744
vt 0.258119 0.357462
vt 0.117144 0.204906
vt 0.467080 0.287777
vt 0.221481 0.364277
vt 0.134426 0.265624
vt 0.236703 0.236049
vt 0.251844 0.315324
vt 0.488446 0.772840
vt 0.481621 0.802050
vt 0.341051 0.793537
vt 0.348021 0.760734
vt 0.615034 0.434962
vt 0.071980 0.358826
vt 0.075119 0.369421
vt 0.056423 0.371802
vt 0.055328 0.368154
vt 0.071196 0.295698
vt 0.054538 0.253205
vt 0.048311 0.244774
vt 0.054357 0.217682
vt 0.054357 0.217682
vt 0.037847 0.237473
vt 0.028739 0.231117
vt 0.029866 0.217943
vt 0.029866 0.217943
vt 0.019841 0.228694
vt 0.012574 0.226714
vt 0.010901 0.221665
vt 0.010901 0.221665
vt 0.009164 0.227853
vt 0.002124 0.230204
vt 0.000000 0.229030
vt 0.090315 0.335685
vt 0.116672 0.391641
vt 0.090894 0.376854
vt 0.080355 0.348255
vt 0.096410 0.285698
vt 0.071709 0.287429
vt 0.064094 0.266143
vt 0.088886 0.214921
vt 0.080199 0.311158
vt 0.067035 0.291169
vt 0.167036 0.428267
vt 0.133555 0.387865
vt 0.473460 0.285511
vt 0.331788 0.170209
vt 0.462855 0.289279
vt 0.131003 0.177871
vt 0.128374 0.195355
vt 0.553233 0.368085
vt 0.181055 0.429455
vt 0.144184 0.410633
vt 0.367232 0.429536
vt 0.214806 0.488629
vt 0.096449 0.501657
vt 0.117450 0.488834
vt 0.230828 0.440108
vt 0.285785 0.483880
vt 0.254985 0.433479
vt 0.259702 0.501283
vt 0.364430 0.717997
vt 0.562754 0.423727
vt 0.498331 0.949239
vt 0.509585 0.933699
vt 0.507334 0.938000
vt 0.504349 0.945937
vt 0.425653 0.956314
vt 0.444646 0.944322
vt 0.421051 0.962662
vt 0.412874 0.970009
vt 0.392461 0.967894
vt 0.385605 0.985070
vt 0.584026 0.906517
vt 0.621913 0.862193
vt 0.612316 0.879680
vt 0.470372 0.941091
vt 0.510333 0.921082
vt 0.462805 0.904324
vt 0.395775 0.922249
vt 0.445553 0.934987
vt 0.356827 0.840737
vt 0.472683 0.840300
vt 0.369641 0.860871
vt 0.374746 0.884184
vt 0.402836 0.977144
vt 0.402420 0.981212
vt 0.376727 0.997342
vt 0.392783 0.991540
vt 0.378234 1.000000
vt 0.356559 0.729744
vt 0.503195 0.709725
vt 0.584396 0.941212
vt 0.596947 0.897088
vt 0.590507 0.920243
vt 0.531072 0.590426
vt 0.667633 0.780200
vt 0.643938 0.802272
vt 0.634840 0.826933
vt 0.604148 0.888932
vt 0.586158 0.921627
vt 0.367337 0.724068
vt 0.748453 0.811261
vt 0.755660 0.798397
vt 0.757033 0.809912
vt 0.755408 0.837551
vt 0.644203 0.570171
vt 0.756103 0.849140
vt 0.758728 0.834966
vt 0.760258 0.837222
vt 0.755829 0.768752
vt 0.760049 0.794790
vt 0.740651 0.799413
vt 0.752707 0.773634
vt 0.761498 0.761879
vt 0.689446 0.653519
vt 0.735402 0.740776
vt 0.702284 0.777087
vt 0.790666 0.644971
vt 0.752274 0.581438
vt 0.763658 0.599419
vt 0.800685 0.644524
vt 0.769900 0.723832
vt 0.761363 0.749179
vt 0.738056 0.790764
vt 0.775890 0.678560
vt 0.779682 0.655454
vt 0.779321 0.621588
vt 0.804721 0.640765
vt 0.792098 0.633326
vt 0.807238 0.638420
vt 0.741656 0.557755
vt 0.629403 0.440375
vt 0.797033 0.511957
vt 0.738677 0.468654
vt 0.756280 0.480205
vt 0.797130 0.507381
vt 0.740722 0.543117
vt 0.674322 0.440375
vt 0.747442 0.529858
vt 0.695297 0.446548
vt 0.762389 0.521426
vt 0.712871 0.451720
vt 0.780500 0.513106
vt 0.342927 0.830891
vt 0.084961 0.638818
vt 0.176783 0.603776
vt 0.141358 0.711054
vt 0.073139 0.658863
vt 0.141972 0.473862
vt 0.287464 0.745121
vt 0.276777 0.765928
vt 0.230000 0.801619
vt 0.263213 0.767832
vt 0.246315 0.780541
vt 0.233236 0.801514
vt 0.192759 0.555395
vt 0.071850 0.749180
vt 0.119834 0.734309
vt 0.098728 0.741784
vt 0.063116 0.761801
vt 0.204268 0.758114
vt 0.175073 0.752935
vt 0.094836 0.713461
vt 0.088535 0.690231
vt 0.075350 0.668200
vt 0.144232 0.751716
vt 0.088498 0.732884
vt 0.133340 0.740219
vt 0.079956 0.756906
vt 0.064767 0.764810
vt 0.088926 0.614634
vt 0.222521 0.773545
vt 0.075574 0.517645
vt 0.024791 0.540640
vt 0.048935 0.547491
vt 0.025618 0.545628
vt 0.008839 0.549678
vt 0.057459 0.528396
vt 0.084806 0.584764
vt 0.072527 0.561950
vt 0.040536 0.532096
vt 0.612448 0.126494
vt 0.156462 0.175981
vt 0.761900 0.817837
vt 0.392877 0.901306
vt 0.466622 0.879587
vt 0.553965 0.899236
vt 0.522886 0.915333
vt 0.509825 0.931379
vt 0.564285 0.898458
vt 0.322564 0.729825
vt 0.574641 0.897678
vt 0.710819 0.262625
vt 0.718080 0.270289
vt 0.717364 0.271211
vt 0.691592 0.274654
vt 0.681688 0.296368
vt 0.703201 0.261052
vt 0.671252 0.319806
vt 0.664022 0.336042
vt 0.647386 0.373242
vt 0.407484 0.007267
vt 0.432604 0.026425
vt 0.624022 0.215196
vt 0.635535 0.232177
vt 0.655212 0.249070
vt 0.674097 0.251121
vt 0.695583 0.259479
vt 0.626248 0.397538
vt 0.607475 0.155194
vt 0.615257 0.172073
vt 0.617064 0.196337
vt 0.716205 0.272702
vt 0.708349 0.268563
vt 0.699970 0.271609
vt 0.456036 0.119108
vt 0.410999 0.099292
vt 0.413464 0.037686
vt 0.402972 0.013227
vt 0.386536 0.003197
vt 0.388167 0.001322
vt 0.389317 0.000000
vt 0.467096 0.066317
vt 0.495326 0.080093
vt -0.000000 -0.000000
vt 0.413234 0.077872
vt 0.521118 0.082985
vt 0.323150 0.124864
vt 0.346388 0.132499
vt 0.545042 0.102227
vt 0.573469 0.134371
vt 0.596128 0.140604
vt 0.607113 0.134434
vt 0.610538 0.138762
vt 0.598476 0.408329
vt 0.289121 0.163141
vt 0.183752 0.167596
vt 0.238396 0.076814
vt 0.232232 0.080365
vt 0.220816 0.052685
vt 0.222952 0.051588
vt 0.249888 0.095855
vt 0.234140 0.100897
vt 0.265002 0.121777
vt 0.231374 0.131966
vt 0.293926 0.103708
vt 0.192872 0.435661
vt 0.361434 0.711744
vt 0.315069 0.213389
vt 0.117144 0.204906
vt 0.341051 0.793537
vt 0.348021 0.760734
vt 0.071980 0.358826
vt 0.075119 0.369421
vt 0.056423 0.371802
vt 0.615034 0.434962
vt 0.048311 0.244774
vt 0.055328 0.368154
vt 0.028739 0.231117
vt 0.054357 0.217682
vt 0.012574 0.226714
vt 0.029866 0.217943
vt 0.009164 0.227853
vt 0.002124 0.230204
vt 0.010901 0.221665
vt 0.090315 0.335685
vt 0.116672 0.391641
vt 0.090894 0.376854
vt 0.000000 0.229030
vt 0.064094 0.266143
vt 0.080355 0.348255
vt 0.080199 0.311158
vt 0.067035 0.291169
vt 0.088886 0.214921
vt 0.610695 0.417482
vt 0.462855 0.289279
vt 0.377772 0.144974
vt 0.134426 0.265624
vt 0.128374 0.195355
vt 0.131003 0.177871
vt 0.144184 0.410633
vt 0.367232 0.429536
vt 0.096449 0.501657
vt 0.117450 0.488834
vt 0.592251 0.415599
vt 0.612630 0.425278
vt 0.507334 0.938000
vt 0.504349 0.945937
vt 0.498331 0.949239
vt 0.444646 0.944322
vt 0.421051 0.962662
vt 0.385605 0.985070
vt 0.392461 0.967894
vt 0.621913 0.862193
vt 0.612316 0.879680
vt 0.470372 0.941091
vt 0.369641 0.860871
vt 0.356827 0.840737
vt 0.374746 0.884184
vt 0.395775 0.922249
vt 0.402836 0.977144
vt 0.376727 0.997342
vt 0.392783 0.991540
vt 0.378234 1.000000
vt 0.356559 0.729744
vt 0.596947 0.897088
vt 0.590507 0.920243
vt 0.584396 0.941212
vt 0.667633 0.780200
vt 0.643938 0.802272
vt 0.634840 0.826933
vt 0.604148 0.888932
vt 0.586158 0.921627
vt 0.584026 0.906517
vt 0.367337 0.724068
vt 0.755408 0.837551
vt 0.748453 0.811261
vt 0.760258 0.837222
vt 0.756103 0.849140
vt 0.755829 0.768752
vt 0.760049 0.794790
vt 0.740651 0.799413
vt 0.761498 0.761879
vt 0.702284 0.777087
vt 0.752274 0.581438
vt 0.763658 0.599419
vt 0.800685 0.644524
vt 0.790666 0.644971
vt 0.769900 0.723832
vt 0.761363 0.749179
vt 0.738056 0.790764
vt 0.775890 0.678560
vt 0.779682 0.655454
vt 0.779321 0.621588
vt 0.804721 0.640765
vt 0.792098 0.633326
vt 0.807238 0.638420
vt 0.741656 0.557755
vt 0.629403 0.440375
vt 0.738677 0.468654
vt 0.756280 0.480205
vt 0.797130 0.507381
vt 0.797033 0.511957
vt 0.674322 0.440375
vt 0.747442 0.529858
vt 0.740722 0.543117
vt 0.695297 0.446548
vt 0.762389 0.521426
vt 0.712871 0.451720
vt 0.780500 0.513106
vt 0.342927 0.830891
vt 0.073139 0.658863
vt 0.084961 0.638818
vt 0.141972 0.473862
vt 0.287464 0.745121
vt 0.276777 0.765928
vt 0.263213 0.767832
vt 0.246315 0.780541
vt 0.233236 0.801514
vt 0.230000 0.801619
vt 0.119834 0.734309
vt 0.098728 0.741784
vt 0.063116 0.761801
vt 0.071850 0.749180
vt 0.204268 0.758114
vt 0.175073 0.752935
vt 0.094836 0.713461
vt 0.088535 0.690231
vt 0.075350 0.668200
vt 0.144232 0.751716
vt 0.088498 0.732884
vt 0.133340 0.740219
vt 0.079956 0.756906
vt 0.064767 0.764810
vt 0.088926 0.614634
vt 0.222521 0.773545
vt 0.048935 0.547491
vt 0.025618 0.545628
vt 0.008839 0.549678
vt 0.024791 0.540640
vt 0.084806 0.584764
vt 0.072527 0.561950
vt 0.040536 0.532096
vt 0.057459 0.528396
vt 0.075574 0.517645
vt 0.612448 0.126494
vt 0.156462 0.175981
vt 0.761900 0.817837
vt 0.392877 0.901306
vt 0.553965 0.899236
vt 0.522886 0.915333
vt 0.509825 0.931379
vt 0.564285 0.898458
vt 0.322564 0.729825
vt 0.574641 0.897678
vt 0.375000 0.312500
vt 0.400000 0.312500
vt 0.400000 0.437813
vt 0.375000 0.437813
vt 0.425000 0.312500
vt 0.425000 0.437813
vt 0.450000 0.312500
vt 0.450000 0.437813
vt 0.475000 0.312500
vt 0.475000 0.437813
vt 0.500000 0.312500
vt 0.500000 0.437813
vt 0.525000 0.312500
vt 0.525000 0.437813
vt 0.550000 0.312500
vt 0.550000 0.437813
vt 0.575000 0.312500
vt 0.575000 0.437813
vt 0.600000 0.312500
vt 0.600000 0.437813
vt 0.625000 0.312500
vt 0.625000 0.437813
vt 0.425000 0.563127
vt 0.450000 0.563127
vt 0.450000 0.688440
vt 0.425000 0.688440
vt 0.400000 0.563127
vt 0.400000 0.688440
vt 0.375000 0.563127
vt 0.375000 0.688440
vt 0.600000 0.563127
vt 0.625000 0.563127
vt 0.625000 0.688440
vt 0.600000 0.688440
vt 0.575000 0.563127
vt 0.575000 0.688440
vt 0.550000 0.563127
vt 0.550000 0.688440
vt 0.525000 0.563127
vt 0.525000 0.688440
vt 0.500000 0.563127
vt 0.500000 0.688440
vt 0.475000 0.563127
vt 0.475000 0.688440
vt 0.000000 0.000000
vt 1.000000 0.000000
vt 1.000000 1.000000
vt 0.000000 1.000000
vt 0.000000 0.000000
vt 1.000000 0.000000
vt 1.000000 1.000000
vt 0.000000 1.000000
vt 0.000000 0.000000
vt 1.000000 0.000000
vt 1.000000 1.000000
vt 0.000000 1.000000
vt 0.000000 0.000000
vt 1.000000 0.000000
vt 1.000000 1.000000
vt 0.000000 1.000000
vt 0.000000 0.000000
vt 1.000000 0.000000
vt 1.000000 1.000000
vt 0.000000 1.000000
vt 0.000000 0.000000
vt 1.000000 0.000000
vt 1.000000 1.000000
vt 0.000000 1.000000
vt 0.000000 0.000000
vt 1.000000 0.000000
vt 1.000000 1.000000
vt 0.000000 1.000000
vt 0.000000 0.000000
vt 1.000000 0.000000
vt 1.000000 1.000000
vt 0.000000 1.000000
vt 0.000000 0.000000
vt 1.000000 0.000000
vt 1.000000 1.000000
vt 0.000000 1.000000
vt 0.000000 0.000000
vt 1.000000 0.000000
vt 1.000000 1.000000
vt 0.000000 1.000000
vt 0.000000 0.000000
vt 1.000000 0.000000
vt 1.000000 1.000000
vt 0.000000 1.000000
vt 0.000000 0.000000
vt 1.000000 0.000000
vt 1.000000 1.000000
vt 0.000000 1.000000
vt 0.000000 0.000000
vt 1.000000 0.000000
vt 1.000000 1.000000
vt 0.000000 1.000000
vt 0.000000 0.000000
vt 1.000000 0.000000
vt 1.000000 1.000000
vt 0.000000 1.000000
vt 0.000000 0.000000
vt 1.000000 0.000000
vt 1.000000 1.000000
vt 0.000000 1.000000
vt 0.000000 0.000000
vt 1.000000 0.000000
vt 1.000000 1.000000
vt 0.000000 1.000000
vt 0.000000 0.000000
vt 1.000000 0.000000
vt 1.000000 1.000000
vt 0.000000 1.000000
vt 0.000000 0.000000
vt 1.000000 0.000000
vt 1.000000 1.000000
vt 0.000000 1.000000
vt 0.000000 0.000000
vt 1.000000 0.000000
vt 1.000000 1.000000
vt 0.000000 1.000000
vt 0.000000 0.000000
vt 1.000000 0.000000
vt 1.000000 1.000000
vt 0.000000 1.000000
vt 0.000000 0.000000
vt 1.000000 0.000000
vt 1.000000 1.000000
vt 0.000000 1.000000
vt 0.000000 0.000000
vt 1.000000 0.000000
vt 1.000000 1.000000
vt 0.000000 1.000000
vt 0.000000 0.000000
vt 1.000000 0.000000
vt 1.000000 1.000000
vt 0.000000 1.000000
vt 0.000000 0.000000
vt 1.000000 0.000000
vt 1.000000 1.000000
vt 0.000000 1.000000
vt 0.000000 0.000000
vt 1.000000 0.000000
vt 1.000000 1.000000
vt 0.000000 1.000000
vt 0.000000 0.000000
vt 1.000000 0.000000
vt 1.000000 1.000000
vt 0.000000 1.000000
vt 0.000000 0.000000
vt 1.000000 0.000000
vt 1.000000 1.000000
vt 0.000000 1.000000
vt 0.000000 0.000000
vt 1.000000 0.000000
vt 1.000000 1.000000
vt 0.000000 1.000000
vt 0.000000 0.000000
vt 1.000000 0.000000
vt 1.000000 1.000000
vt 0.000000 1.000000
vt 0.000000 0.000000
vt 1.000000 0.000000
vt 1.000000 1.000000
vt 0.000000 1.000000
vt 0.000000 0.000000
vt 1.000000 0.000000
vt 1.000000 1.000000
vt 0.000000 1.000000
vt 0.000000 0.000000
vt 1.000000 0.000000
vt 1.000000 1.000000
vt 0.000000 1.000000
vt 0.000000 0.000000
vt 1.000000 0.000000
vt 1.000000 1.000000
vt 0.000000 1.000000
vt 0.000000 0.000000
vt 1.000000 0.000000
vt 1.000000 1.000000
vt 0.000000 1.000000
vt 0.000000 0.000000
vt 1.000000 0.000000
vt 1.000000 1.000000
vt 0.000000 1.000000
vt 0.000000 0.000000
vt 1.000000 0.000000
vt 1.000000 1.000000
vt 0.000000 1.000000
vt 0.000000 0.000000
vt 1.000000 0.000000
vt 1.000000 1.000000
vt 0.000000 1.000000
vt 0.000000 0.000000
vt 1.000000 0.000000
vt 1.000000 1.000000
vt 0.000000 1.000000
vt 0.000000 0.000000
vt 1.000000 0.000000
vt 1.000000 1.000000
vt 0.000000 1.000000
vt 0.000000 0.000000
vt 1.000000 0.000000
vt 1.000000 1.000000
vt 0.000000 1.000000
vt 0.000000 0.000000
vt 1.000000 0.000000
vt 1.000000 1.000000
vt 0.000000 1.000000
vt 0.000000 0.000000
vt 1.000000 0.000000
vt 1.000000 1.000000
vt 0.000000 1.000000
vt 0.000000 0.000000
vt 1.000000 0.000000
vt 1.000000 1.000000
vt 0.000000 1.000000
vt 0.000000 0.000000
vt 1.000000 0.000000
vt 1.000000 1.000000
vt 0.000000 1.000000
vt 0.000000 0.000000
vt 1.000000 0.000000
vt 1.000000 1.000000
vt 0.000000 1.000000
vt 0.000000 0.000000
vt 1.000000 0.000000
vt 1.000000 1.000000
vt 0.000000 1.000000
vt 0.000000 0.000000
vt 1.000000 0.000000
vt 1.000000 1.000000
vt 0.000000 1.000000
vt 0.000000 0.000000
vt 1.000000 0.000000
vt 1.000000 1.000000
vt 0.000000 1.000000
vt 0.000000 0.000000
vt 1.000000 0.000000
vt 1.000000 1.000000
vt 0.000000 1.000000
vt 0.000000 0.000000
vt 1.000000 0.000000
vt 1.000000 1.000000
vt 0.000000 1.000000
vt 0.000000 0.000000
vt 1.000000 0.000000
vt 1.000000 1.000000
vt 0.000000 1.000000
vt 0.000000 0.000000
vt 1.000000 0.000000
vt 1.000000 1.000000
vt 0.000000 1.000000
vt 0.000000 0.000000
vt 1.000000 0.000000
vt 1.000000 1.000000
vt 0.000000 1.000000
vt 0.000000 0.000000
vt 1.000000 0.000000
vt 1.000000 1.000000
vt 0.000000 1.000000
vt 0.000000 0.000000
vt 1.000000 0.000000
vt 1.000000 1.000000
vt 0.000000 1.000000
vt 0.000000 0.000000
vt 1.000000 0.000000
vt 1.000000 1.000000
vt 0.000000 1.000000
vt 0.000000 0.000000
vt 1.000000 0.000000
vt 1.000000 1.000000
vt 0.000000 1.000000
vt 0.000000 0.000000
vt 1.000000 0.000000
vt 1.000000 1.000000
vt 0.000000 1.000000
vt 0.000000 0.000000
vt 1.000000 0.000000
vt 1.000000 1.000000
vt 0.000000 1.000000
vt 0.000000 0.000000
vt 1.000000 0.000000
vt 1.000000 1.000000
vt 0.000000 1.000000
vt 0.000000 0.000000
vt 1.000000 0.000000
vt 1.000000 1.000000
vt 0.000000 1.000000
vt 0.000000 0.000000
vt 1.000000 0.000000
vt 1.000000 1.000000
vt 0.000000 1.000000
vt 0.000000 0.000000
vt 1.000000 0.000000
vt 1.000000 1.000000
vt 0.000000 1.000000
vt 0.000000 0.000000
vt 1.000000 0.000000
vt 1.000000 1.000000
vt 0.000000 1.000000
vt 0.000000 0.000000
vt 1.000000 0.000000
vt 1.000000 1.000000
vt 0.000000 1.000000
vt 0.000000 0.000000
vt 1.000000 0.000000
vt 1.000000 1.000000
vt 0.000000 1.000000
vt 0.000000 0.000000
vt 1.000000 0.000000
vt 1.000000 1.000000
vt 0.000000 1.000000
vt 0.000000 0.000000
vt 1.000000 0.000000
vt 1.000000 1.000000
vt 0.000000 1.000000
vt 0.000000 0.000000
vt 1.000000 0.000000
vt 1.000000 1.000000
vt 0.000000 1.000000
vt 0.000000 0.000000
vt 1.000000 0.000000
vt 1.000000 1.000000
vt 0.000000 1.000000
vt 0.000000 0.000000
vt 1.000000 0.000000
vt 1.000000 1.000000
vt 0.000000 1.000000
vt 0.000000 0.000000
vt 1.000000 0.000000
vt 1.000000 1.000000
vt 0.000000 1.000000
vt 0.000000 0.000000
vt 1.000000 0.000000
vt 1.000000 1.000000
vt 0.000000 1.000000
vt 0.000000 0.000000
vt 1.000000 0.000000
vt 1.000000 1.000000
vt 0.000000 1.000000
vt 0.000000 0.000000
vt 1.000000 0.000000
vt 1.000000 1.000000
vt 0.000000 1.000000
vt 0.000000 0.000000
vt 1.000000 0.000000
vt 1.000000 1.000000
vt 0.000000 1.000000
vt 0.000000 0.000000
vt 1.000000 0.000000
vt 1.000000 1.000000
vt 0.000000 1.000000
vt 0.000000 0.000000
vt 1.000000 0.000000
vt 1.000000 1.000000
vt 0.000000 1.000000
vt 0.000000 0.000000
vt 1.000000 0.000000
vt 1.000000 1.000000
vt 0.000000 1.000000
vt 0.000000 0.000000
vt 1.000000 0.000000
vt 1.000000 1.000000
vt 0.000000 1.000000
vt 0.000000 0.000000
vt 1.000000 0.000000
vt 1.000000 1.000000
vt 0.000000 1.000000
vt 0.000000 0.000000
vt 1.000000 0.000000
vt 1.000000 1.000000
vt 0.000000 1.000000
vt 0.000000 0.000000
vt 1.000000 0.000000
vt 1.000000 1.000000
vt 0.000000 1.000000
vt 0.000000 0.000000
vt 1.000000 0.000000
vt 1.000000 1.000000
vt 0.000000 1.000000
vt 0.000000 0.000000
vt 1.000000 0.000000
vt 1.000000 1.000000
vt 0.000000 1.000000
vt 0.000000 0.000000
vt 1.000000 0.000000
vt 1.000000 1.000000
vt 0.000000 1.000000
vt 0.000000 0.000000
vt 1.000000 0.000000
vt 1.000000 1.000000
vt 0.000000 1.000000
vt 0.000000 0.000000
vt 1.000000 0.000000
vt 1.000000 1.000000
vt 0.000000 1.000000
vt 0.000000 0.000000
vt 1.000000 0.000000
vt 1.000000 1.000000
vt 0.000000 1.000000
vt 0.000000 0.000000
vt 1.000000 0.000000
vt 1.000000 1.000000
vt 0.000000 1.000000
vt 0.000000 0.000000
vt 1.000000 0.000000
vt 1.000000 1.000000
vt 0.000000 1.000000
vt 0.000000 0.000000
vt 1.000000 0.000000
vt 1.000000 1.000000
vt 0.000000 1.000000
vt 0.000000 0.000000
vt 1.000000 0.000000
vt 1.000000 1.000000
vt 0.000000 1.000000
vt 0.000000 0.000000
vt 1.000000 0.000000
vt 1.000000 1.000000
vt 0.000000 1.000000
vt 0.000000 0.000000
vt 1.000000 0.000000
vt 1.000000 1.000000
vt 0.000000 1.000000
vt 0.000000 0.000000
vt 1.000000 0.000000
vt 1.000000 1.000000
vt 0.000000 1.000000
vt 0.000000 0.000000
vt 1.000000 0.000000
vt 1.000000 1.000000
vt 0.000000 1.000000
vt 0.000000 0.000000
vt 1.000000 0.000000
vt 1.000000 1.000000
vt 0.000000 1.000000
vt 0.000000 0.000000
vt 1.000000 0.000000
vt 1.000000 1.000000
vt 0.000000 1.000000
vt 0.000000 0.000000
vt 1.000000 0.000000
vt 1.000000 1.000000
vt 0.000000 1.000000
vt 0.000000 0.000000
vt 1.000000 0.000000
vt 0.500000 1.000000
vt 0.000000 0.000000
vt 1.000000 0.000000
vt 0.500000 1.000000
vt 0.000000 0.000000
vt 1.000000 0.000000
vt 0.500000 1.000000
vt 0.000000 0.000000
vt 1.000000 0.000000
vt 0.500000 1.000000
vt 0.000000 0.000000
vt 1.000000 0.000000
vt 0.500000 1.000000
vt 0.000000 0.000000
vt 1.000000 0.000000
vt 0.500000 1.000000
vt 0.000000 0.000000
vt 1.000000 0.000000
vt 0.500000 1.000000
vt 0.000000 0.000000
vt 1.000000 0.000000
vt 0.500000 1.000000
vt 0.000000 0.000000
vt 1.000000 0.000000
vt 0.500000 1.000000
vt 0.000000 0.000000
vt 1.000000 0.000000
vt 0.500000 1.000000
vt 0.456036 0.119108
vt 0.456036 0.119108
vt 0.456036 0.119108
vt -0.000000 -0.000000
vt 0.456036 0.119108
vt -0.000000 -0.000000
vt -0.000000 -0.000000
vt 0.456036 0.119108
vt -0.000000 -0.000000
vt 0.456036 0.119108
vt -0.000000 -0.000000
vt -0.000000 -0.000000
vt -0.000000 -0.000000
vt -0.000000 -0.000000
vt 0.456036 0.119108
vt 0.565140 0.161564
vt 0.456036 0.119108
vt 0.593787 0.205807
vt 0.456036 0.119108
vt 0.456036 0.119108
vt 0.565140 0.161564
vt 0.456036 0.119108
vt -0.000000 -0.000000
vt 0.456036 0.119108
vt 0.456036 0.119108
vt 0.598476 0.408329
vt 0.592251 0.415599
vt 0.456036 0.119108
vt 0.183752 0.167596
vt 0.289121 0.163141
vt 0.238396 0.076814
vt 0.222952 0.051588
vt 0.232232 0.080365
vt 0.238396 0.076814
vt 0.249888 0.095855
vt 0.238396 0.076814
vt 0.242700 0.071948
vt 0.234140 0.100897
vt 0.249888 0.095855
vt 0.265002 0.121777
vt 0.249888 0.095855
vt 0.266274 0.091334
vt 0.289121 0.163141
vt 0.456036 0.119108
vt 0.231374 0.131966
vt 0.265002 0.121777
vt 0.323150 0.124864
vt 0.289121 0.163141
vt 0.265002 0.121777
vt 0.289121 0.163141
vt 0.462855 0.289279
vt 0.315069 0.213389
vt -0.000000 -0.000000
vt 0.462855 0.289279
vt -0.000000 -0.000000
vt 0.456036 0.119108
vt 0.456036 0.119108
vt 0.565140 0.161564
vt 0.456036 0.119108
vt 0.532810 0.120501
vt 0.565140 0.161564
vt 0.462855 0.289279
vt 0.565140 0.161564
vt 0.456036 0.119108
vt 0.456036 0.119108
vt 0.456036 0.119108
vt 0.456036 0.119108
vt 0.456036 0.119108
vt 0.456036 0.119108
vt 0.456036 0.119108
vt 0.064094 0.266143
vt 0.117144 0.204906
vt 0.080199 0.311158
vt 0.315069 0.213389
vt 0.134426 0.265624
vt 0.090315 0.335685
vt 0.080355 0.348255
vt 0.090894 0.376854
vt 0.075119 0.369421
vt 0.598476 0.408329
vt 0.456036 0.119108
vt 0.598476 0.408329
vt -0.000000 -0.000000
vt 0.456036 0.119108
vt -0.000000 -0.000000
vt 0.462855 0.289279
vt 0.289121 0.163141
vt 0.456036 0.119108
vt 0.456036 0.119108
vt 0.346388 0.132499
vt 0.462855 0.289279
vt 0.315069 0.213389
vt 0.134426 0.265624
vt 0.117144 0.204906
vt 0.134426 0.265624
vt 0.090315 0.335685
vt 0.117144 0.204906
vt 0.080199 0.311158
vt 0.064094 0.266143
vt 0.054357 0.217682
vt 0.048311 0.244774
vt 0.029866 0.217943
vt 0.028739 0.231117
vt 0.010901 0.221665
vt 0.012574 0.226714
vt 0.462855 0.289279
vt 0.456036 0.119108
vt 0.456036 0.119108
vt 0.134426 0.265624
vt 0.116672 0.391641
vt 0.134426 0.265624
vt 0.134426 0.265624
vt 0.315069 0.213389
vt 0.367232 0.429536
vt 0.192872 0.435661
vt 0.592251 0.415599
vt 0.315069 0.213389
vt 0.462855 0.289279
vt 0.192872 0.435661
vt 0.361434 0.711744
vt 0.315069 0.213389
vt 0.592251 0.415599
vt 0.367232 0.429536
vt 0.367232 0.429536
vt 0.456036 0.119108
vt 0.456036 0.119108
vt 0.377772 0.144974
vt 0.134426 0.265624
vt 0.134426 0.265624
vt 0.456036 0.119108
vt 0.456036 0.119108
vt 0.456036 0.119108
vt 0.456036 0.119108
vt -0.000000 -0.000000
vt -0.000000 -0.000000
vt 0.456036 0.119108
vt -0.000000 -0.000000
vt -0.000000 -0.000000
vt 0.456036 0.119108
vt -0.000000 -0.000000
vt -0.000000 -0.000000
vt 0.456036 0.119108
vt 0.456036 0.119108
vt -0.000000 -0.000000
vt -0.000000 -0.000000
vt 0.456036 0.119108
vt 0.593787 0.205807
vt 0.456036 0.119108
vt 0.565140 0.161564
vt 0.456036 0.119108
vt 0.565140 0.161564
vt 0.456036 0.119108
vt 0.456036 0.119108
vt 0.456036 0.119108
vt 0.456036 0.119108
vt 0.456036 0.119108
vt 0.592251 0.415599
vt 0.598476 0.408329
vt 0.289121 0.163141
vt 0.183752 0.167596
vt 0.289121 0.163141
vt 0.222952 0.051588
vt 0.238396 0.076814
vt 0.232232 0.080365
vt 0.238396 0.076814
vt 0.238396 0.076814
vt 0.249888 0.095855
vt 0.242700 0.071948
vt 0.234140 0.100897
vt 0.249888 0.095855
vt 0.249888 0.095855
vt 0.265002 0.121777
vt 0.266274 0.091334
vt 0.231374 0.131966
vt 0.456036 0.119108
vt 0.289121 0.163141
vt 0.265002 0.121777
vt 0.265002 0.121777
vt 0.289121 0.163141
vt 0.323150 0.124864
vt 0.293926 0.103708
vt 0.289121 0.163141
vt 0.315069 0.213389
vt 0.462855 0.289279
vt 0.315069 0.213389
vt -0.000000 -0.000000
vt 0.462855 0.289279
vt 0.456036 0.119108
vt 0.456036 0.119108
vt -0.000000 -0.000000
vt 0.456036 0.119108
vt 0.532810 0.120501
vt 0.456036 0.119108
vt 0.565140 0.161564
vt 0.565140 0.161564
vt 0.565140 0.161564
vt 0.462855 0.289279
vt 0.456036 0.119108
vt 0.456036 0.119108
vt 0.456036 0.119108
vt 0.456036 0.119108
vt 0.456036 0.119108
vt 0.456036 0.119108
vt 0.064094 0.266143
vt 0.117144 0.204906
vt 0.080199 0.311158
vt 0.134426 0.265624
vt 0.315069 0.213389
vt 0.090315 0.335685
vt 0.075119 0.369421
vt 0.090894 0.376854
vt 0.080355 0.348255
vt 0.610695 0.417482
vt 0.598476 0.408329
vt 0.456036 0.119108
vt 0.598476 0.408329
vt -0.000000 -0.000000
vt 0.456036 0.119108
vt 0.377772 0.144974
vt 0.462855 0.289279
vt 0.456036 0.119108
vt -0.000000 -0.000000
vt 0.462855 0.289279
vt 0.289121 0.163141
vt 0.456036 0.119108
vt 0.456036 0.119108
vt 0.346388 0.132499
vt 0.462855 0.289279
vt 0.315069 0.213389
vt 0.134426 0.265624
vt 0.134426 0.265624
vt 0.090315 0.335685
vt 0.134426 0.265624
vt 0.117144 0.204906
vt 0.080199 0.311158
vt 0.117144 0.204906
vt 0.064094 0.266143
vt 0.048311 0.244774
vt 0.054357 0.217682
vt 0.028739 0.231117
vt 0.029866 0.217943
vt 0.012574 0.226714
vt 0.010901 0.221665
vt 0.456036 0.119108
vt 0.456036 0.119108
vt 0.462855 0.289279
vt 0.116672 0.391641
vt 0.134426 0.265624
vt 0.134426 0.265624
vt 0.134426 0.265624
vt 0.315069 0.213389
vt 0.367232 0.429536
vt 0.192872 0.435661
vt 0.592251 0.415599
vt 0.462855 0.289279
vt 0.315069 0.213389
vt 0.192872 0.435661
vt 0.361434 0.711744
vt 0.592251 0.415599
vt 0.315069 0.213389
vt 0.612630 0.425278
vt 0.592251 0.415599
vt 0.367232 0.429536
vt 0.367232 0.429536
vt 0.456036 0.119108
vt 0.612630 0.425278
vt 0.456036 0.119108
vt 0.377772 0.144974
vt 0.134426 0.265624
vt 0.134426 0.265624
vt 0.456036 0.119108
vt 0.456036 0.119108
vt -0.000000 -0.000000
vt 0.456036 0.119108
vt -0.000000 -0.000000
vt 0.456036 0.119108
vt -0.000000 -0.000000
vt 0.456036 0.119108
vt 0.456036 0.119108
vt -0.000000 -0.000000
vt -0.000000 -0.000000
vt -0.000000 -0.000000
vt -0.000000 -0.000000
vt -0.000000 -0.000000
vt 0.456036 0.119108
vt 0.456036 0.119108
vt 0.289121 0.163141
vt 0.238396 0.076814
vt 0.222952 0.051588
vt 0.238396 0.076814
vt 0.222952 0.051588
vt 0.222952 0.051588
vt 0.238396 0.076814
vt 0.238396 0.076814
vt 0.238396 0.076814
vt 0.238396 0.076814
vt 0.249888 0.095855
vt 0.249888 0.095855
vt 0.249888 0.095855
vt 0.249888 0.095855
vt 0.289121 0.163141
vt 0.456036 0.119108
vt 0.456036 0.119108
vt 0.289121 0.163141
vt 0.265002 0.121777
vt 0.265002 0.121777
vt 0.265002 0.121777
vt 0.265002 0.121777
vt 0.289121 0.163141
vt 0.293926 0.103708
vt 0.289121 0.163141
vt 0.315069 0.213389
vt 0.064094 0.266143
vt 0.064094 0.266143
vt 0.080355 0.348255
vt 0.090894 0.376854
vt 0.090894 0.376854
vt 0.080355 0.348255
vt 0.075119 0.369421
vt 0.090315 0.335685
vt 0.090315 0.335685
vt 0.075119 0.369421
vt 0.610695 0.417482
vt 0.462855 0.289279
vt 0.377772 0.144974
vt 0.134426 0.265624
vt 0.134426 0.265624
vt 0.134426 0.265624
vt 0.134426 0.265624
vt 0.090315 0.335685
vt 0.090315 0.335685
vt 0.134426 0.265624
vt 0.064094 0.266143
vt 0.064094 0.266143
vt 0.054357 0.217682
vt 0.048311 0.244774
vt 0.048311 0.244774
vt 0.054357 0.217682
vt 0.029866 0.217943
vt 0.028739 0.231117
vt 0.028739 0.231117
vt 0.029866 0.217943
vt 0.010901 0.221665
vt 0.012574 0.226714
vt 0.012574 0.226714
vt 0.010901 0.221665
vt 0.012574 0.226714
vt 0.012574 0.226714
vt 0.134426 0.265624
vt 0.134426 0.265624
vt 0.134426 0.265624
vt 0.592251 0.415599
vt 0.612630 0.425278
vt 0.395775 0.922249
vt 0.584026 0.906517
vt 0.367337 0.724068
vt 0.612630 0.425278
vt 0.456036 0.119108
vt 0.456036 0.119108
vt 0.456036 0.119108
vt 0.456036 0.119108
vt 0.377772 0.144974
vt 0.377772 0.144974
vt 0.075574 0.517645
vt 0.134426 0.265624
vt 0.134426 0.265624
vt 0.134426 0.265624
vt 0.134426 0.265624
vt 0.395775 0.922249
vt 0.553965 0.899236
vt 0.553965 0.899236
vt 0.075574 0.517645
vt 0.584026 0.906517
vt 0.495326 0.080093
vt 0.467096 0.066317
vt 0.456036 0.119108
vt -0.000000 -0.000000
vt -0.000000 -0.000000
vt -0.000000 -0.000000
vt 0.432604 0.026425
vt 0.407484 0.007267
vt 0.389317 0.000000
vt 0.388167 0.001322
vt 0.386536 0.003197
vt 0.402972 0.013227
vt 0.413464 0.037686
vt -0.000000 -0.000000
vt -0.000000 -0.000000
vt 0.413234 0.077872
vt 0.456036 0.119108
vt 0.410999 0.099292
vt 0.377772 0.144974
vt 0.456036 0.119108
vt 0.293926 0.103708
vt 0.462855 0.289279
vt 0.346388 0.132499
vt 0.289121 0.163141
vt 0.265002 0.121777
vt 0.323150 0.124864
vt 0.249888 0.095855
vt 0.265002 0.121777
vt 0.238396 0.076814
vt 0.249888 0.095855
vt 0.222952 0.051588
vt 0.238396 0.076814
vt 0.222952 0.051588
vt 0.222952 0.051588
vt 0.220816 0.052685
vt 0.238396 0.076814
vt 0.232232 0.080365
vt 0.234140 0.100897
vt 0.238396 0.076814
vt 0.231374 0.131966
vt 0.249888 0.095855
vt 0.456036 0.119108
vt 0.265002 0.121777
vt 0.183752 0.167596
vt 0.289121 0.163141
vt 0.156462 0.175981
vt 0.289121 0.163141
vt 0.131003 0.177871
vt 0.128374 0.195355
vt 0.117144 0.204906
vt 0.080355 0.348255
vt 0.315069 0.213389
vt 0.055328 0.368154
vt 0.064094 0.266143
vt 0.054357 0.217682
vt 0.048311 0.244774
vt 0.029866 0.217943
vt 0.028739 0.231117
vt 0.010901 0.221665
vt 0.012574 0.226714
vt 0.002124 0.230204
vt 0.009164 0.227853
vt 0.012574 0.226714
vt 0.012574 0.226714
vt 0.028739 0.231117
vt 0.010901 0.221665
vt 0.048311 0.244774
vt 0.029866 0.217943
vt 0.064094 0.266143
vt 0.054357 0.217682
vt 0.088886 0.214921
vt 0.067035 0.291169
vt 0.080199 0.311158
vt 0.090315 0.335685
vt 0.064094 0.266143
vt 0.000000 0.229030
vt 0.134426 0.265624
vt 0.090315 0.335685
vt 0.090894 0.376854
vt 0.615034 0.434962
vt 0.075119 0.369421
vt 0.056423 0.371802
vt 0.075119 0.369421
vt 0.090894 0.376854
vt 0.071980 0.358826
vt 0.116672 0.391641
vt 0.080355 0.348255
vt 0.144184 0.410633
vt 0.090315 0.335685
vt 0.134426 0.265624
vt 0.134426 0.265624
vt 0.134426 0.265624
vt 0.134426 0.265624
vt 0.134426 0.265624
vt 0.134426 0.265624
vt 0.377772 0.144974
vt 0.367232 0.429536
vt 0.141972 0.473862
vt 0.117450 0.488834
vt 0.096449 0.501657
vt 0.075574 0.517645
vt 0.075574 0.517645
vt 0.057459 0.528396
vt 0.040536 0.532096
vt 0.024791 0.540640
vt 0.008839 0.549678
vt 0.025618 0.545628
vt 0.048935 0.547491
vt 0.072527 0.561950
vt 0.084806 0.584764
vt 0.088926 0.614634
vt 0.084961 0.638818
vt 0.073139 0.658863
vt 0.075350 0.668200
vt 0.088535 0.690231
vt 0.094836 0.713461
vt 0.088498 0.732884
vt 0.071850 0.749180
vt 0.063116 0.761801
vt 0.064767 0.764810
vt 0.079956 0.756906
vt 0.098728 0.741784
vt 0.119834 0.734309
vt 0.133340 0.740219
vt 0.144232 0.751716
vt 0.175073 0.752935
vt 0.204268 0.758114
vt 0.222521 0.773545
vt 0.230000 0.801619
vt 0.233236 0.801514
vt 0.246315 0.780541
vt 0.263213 0.767832
vt 0.276777 0.765928
vt 0.287464 0.745121
vt 0.322564 0.729825
vt 0.361434 0.711744
vt 0.367337 0.724068
vt 0.192872 0.435661
vt 0.356559 0.729744
vt 0.348021 0.760734
vt 0.341051 0.793537
vt 0.342927 0.830891
vt 0.356827 0.840737
vt 0.369641 0.860871
vt 0.374746 0.884184
vt 0.392877 0.901306
vt 0.395775 0.922249
vt 0.395775 0.922249
vt 0.392461 0.967894
vt 0.385605 0.985070
vt 0.376727 0.997342
vt 0.378234 1.000000
vt 0.392783 0.991540
vt 0.402836 0.977144
vt 0.421051 0.962662
vt 0.444646 0.944322
vt 0.470372 0.941091
vt 0.498331 0.949239
vt 0.504349 0.945937
vt 0.507334 0.938000
vt 0.509825 0.931379
vt 0.522886 0.915333
vt 0.553965 0.899236
vt 0.553965 0.899236
vt 0.564285 0.898458
vt 0.574641 0.897678
vt 0.584026 0.906517
vt 0.584026 0.906517
vt 0.586158 0.921627
vt 0.584396 0.941212
vt 0.590507 0.920243
vt 0.596947 0.897088
vt 0.604148 0.888932
vt 0.612316 0.879680
vt 0.621913 0.862193
vt 0.634840 0.826933
vt 0.643938 0.802272
vt 0.667633 0.780200
vt 0.702284 0.777087
vt 0.738056 0.790764
vt 0.740651 0.799413
vt 0.748453 0.811261
vt 0.755408 0.837551
vt 0.756103 0.849140
vt 0.760258 0.837222
vt 0.761900 0.817837
vt 0.760049 0.794790
vt 0.755829 0.768752
vt 0.761498 0.761879
vt 0.761363 0.749179
vt 0.769900 0.723832
vt 0.775890 0.678560
vt 0.779682 0.655454
vt 0.790666 0.644971
vt 0.800685 0.644524
vt 0.804721 0.640765
vt 0.807238 0.638420
vt 0.792098 0.633326
vt 0.779321 0.621588
vt 0.763658 0.599419
vt 0.752274 0.581438
vt 0.741656 0.557755
vt 0.740722 0.543117
vt 0.747442 0.529858
vt 0.762389 0.521426
vt 0.780500 0.513106
vt 0.797033 0.511957
vt 0.797130 0.507381
vt 0.756280 0.480205
vt 0.738677 0.468654
vt 0.712871 0.451720
vt 0.695297 0.446548
vt 0.674322 0.440375
vt 0.629403 0.440375
vt 0.456036 0.119108
vt 0.456036 0.119108
vt 0.612630 0.425278
vt 0.612630 0.425278
vt 0.456036 0.119108
vt 0.592251 0.415599
vt 0.610695 0.417482
vt 0.598476 0.408329
vt 0.626248 0.397538
vt 0.647386 0.373242
vt 0.664022 0.336042
vt 0.671252 0.319806
vt 0.681688 0.296368
vt 0.691592 0.274654
vt 0.699970 0.271609
vt 0.708349 0.268563
vt 0.716205 0.272702
vt 0.717364 0.271211
vt 0.718080 0.270289
vt 0.710819 0.262625
vt 0.703201 0.261052
vt 0.695583 0.259479
vt 0.674097 0.251121
vt 0.655212 0.249070
vt 0.635535 0.232177
vt 0.624022 0.215196
vt 0.617064 0.196337
vt 0.615257 0.172073
vt 0.607475 0.155194
vt 0.610538 0.138762
vt 0.612448 0.126494
vt 0.607113 0.134434
vt 0.596128 0.140604
vt 0.573469 0.134371
vt 0.545042 0.102227
vt 0.521118 0.082985
f 282/1 283/553 284/554 285/555
f 286/557 287/6 288/7 289/556
f 282/1 290/9 291/558 283/553
f 292/560 293/12 287/6 294/559
f 294/559 287/6 286/557
f 295/561 293/12 292/560
f 296/562 297/563 298/17 299/18
f 300/565 301/20 302/21 303/564
f 300/565 304/566 287/6 301/20
f 287/6 304/566 305/567
f 288/7 287/6 305/567 306/568
f 307/569 308/27 293/12 295/561
f 309/571 310/31 311/570
f 312/572 302/21 310/31 309/571
f 313/28 314/34 315/29 316/1230
f 303/564 302/21 312/572
f 316/1231 315/29 293/12 308/27
f 301/20 287/6 293/12 315/29
f 310/31 302/21 315/29 314/34
f 302/21 301/20 315/29
f 317/574 282/1 285/555 318/573
f 319/575 290/9 282/1 317/574
f 289/556 288/7 290/9 319/575
f 291/558 290/9 288/7 306/568
f 320/576 321/1232 322/577
f 323/579 299/18 298/17 324/578
f 325/581 299/18 323/579 326/580
f 325/581 327/582 296/562 299/18
f 328/584 320/45 329/583
f 324/578 298/17 330/47 331/585
f 331/585 330/47 332/1233 333/1234
f 332/1235 330/47 334/1236 335/1237
f 297/563 334/1238 330/47 298/17
f 320/576 322/577 333/586 332/1239
f 329/583 320/1240 332/1241 335/1242
f 336/587 337/50 320/1243 328/584
f 338/589 339/52 340/588
f 341/590 342/55 337/50 336/587
f 343/56 342/55 341/590 344/591
f 343/56 344/591 345/592
f 311/570 345/592 346/593 347/594
f 310/31 343/56 345/592 311/570
f 349/1244 348/1245 314/1246 313/1247
f 349/1248 350/1249 348/1250
f 337/50 342/55 350/1251
f 320/1252 337/50 350/1253
f 352/1254 351/62 353/63 354/595
f 353/65 351/1255 355/1256 316/1257
f 356/596 357/597 339/1258 358/67
f 360/1259 359/598 361/599 362/600
f 363/601 360/72 362/1260 364/1261
f 366/73 365/602 359/603 360/1262
f 367/1263 366/76 360/1264 363/1265
f 369/1266 368/604 365/605 366/1267
f 370/1268 369/79 366/1269 367/1270
f 339/1271 357/1272 368/1273 369/1274
f 340/1275 339/1276 369/1277 370/1278
f 371/606 358/80 339/81 338/1279
f 372/82 358/1280 371/1281
f 373/83 374/607 375/608 376/272
f 358/67 377/609 378/610
f 379/1282 372/89 371/1283
f 320/576 350/1284 379/1285
f 348/1286 350/1287 342/1288 343/1289
f 314/1290 348/1291 343/56 310/1292
f 349/1293 379/1294 350/1295
f 316/1296 355/1297 380/1298 313/1299
f 381/90 358/91 382/92 383/93
f 384/95 385/276 386/611 387/612
f 388/616 389/613 390/614 391/615
f 393/618 392/103 394/104 395/617
f 395/620 394/107 396/108 397/619
f 397/622 396/111 398/112 399/621
f 399/625 398/115 400/623 401/624
f 402/629 403/626 404/627 405/628
f 377/631 406/123 392/124 393/630
f 408/634 407/1300 409/632 410/633
f 377/129 411/1301 406/130
f 358/1302 411/1303 377/1304
f 405/1305 404/1306 389/1307 388/1308
f 354/635 353/1309 308/27 307/569
f 316/1310 308/27 353/1311
f 379/1312 371/636 321/637 320/576
f 349/1313 412/131 372/89 379/1314
f 412/132 382/133 358/1315 372/82
f 313/1316 380/1317 412/131 349/1318
f 380/1319 413/1320 382/133 412/132
f 413/1321 383/93 382/92
f 414/638 415/1322 381/90 383/93
f 416/640 378/610 417/639
f 406/130 411/1323 402/1324 407/1325
f 392/124 406/123 407/1326 408/1327
f 394/104 392/103 408/634 418/1328
f 396/108 394/107 418/1329 419/1330
f 398/112 396/111 419/1331 420/1332
f 400/623 398/115 420/1333 421/1334
f 422/135 380/1335 355/1336 351/1337
f 411/136 423/1338 403/641 402/1339
f 381/90 423/1340 411/136
f 411/136 358/1341 381/90
f 383/93 413/1342 424/642 414/638
f 425/140 426/643 427/644 428/275
f 351/1343 429/142 422/143
f 429/142 430/144 431/1344 422/143
f 431/1345 413/1346 380/1347 422/135
f 431/1348 430/144 373/145 424/1349
f 424/642 413/1350 431/1351
f 433/646 432/146 351/1352 352/645
f 434/649 435/268 436/647 437/648
f 438/151 439/650 440/651 441/154
f 442/653 438/151 441/154 443/652
f 444/183 384/95 445/654 446/655
f 447/656 448/267 435/268 434/649
f 449/266 448/267 447/656
f 450/162 449/266 451/161
f 452/658 453/96 454/657
f 454/657 453/96 455/659
f 449/266 447/656 451/161
f 450/660 451/161 438/151 442/653
f 451/161 447/656 439/650 438/151
f 441/154 440/651 456/661 457/167
f 443/652 441/154 457/167 458/662
f 457/167 456/661 459/663
f 458/662 457/167 459/663 460/664
f 461/665 462/172 384/95 387/612
f 463/668 464/666 465/667
f 429/142 466/177 462/172 430/144
f 466/177 467/669 468/670 462/172
f 462/172 468/670 469/671
f 444/674 446/655 470/672 471/673
f 471/673 470/672 464/666 463/668
f 430/144 374/186 373/145
f 430/144 462/172 461/665 374/675
f 432/146 466/177 429/142 351/1353
f 472/677 473/188 474/189 475/676
f 432/146 476/191 466/177
f 477/1354 476/191 432/146 433/646
f 478/679 479/265 480/678
f 473/188 481/680 482/681 474/189
f 478/679 475/676 474/189 479/265
f 483/682 484/198 473/188 472/677
f 484/198 485/683 481/680 473/188
f 486/200 487/201 488/684 467/669
f 489/688 490/685 491/686 492/687
f 484/198 493/689 494/690
f 495/691 484/198 483/682
f 484/198 494/690 485/683
f 487/201 496/692 493/689 484/198
f 488/684 487/201 484/198 495/691
f 486/200 497/693 496/692 487/201
f 486/200 490/685 489/688
f 492/687 491/686 498/694 499/695
f 499/695 498/694 500/696 501/697
f 486/200 489/688 497/693
f 476/191 502/698 490/685 486/200
f 466/177 476/191 486/200 467/669
f 477/1355 503/699 476/191
f 504/703 505/700 506/701 507/702
f 508/706 503/699 509/704 510/705
f 510/705 509/704 511/707 512/708
f 512/708 511/707 513/709 514/710
f 514/710 513/709 505/700 504/703
f 476/191 503/699 508/706
f 476/191 508/706 502/698
f 515/711 453/96 452/658
f 516/713 517/232 518/233 519/712
f 424/1356 373/83 376/272 520/714
f 425/140 521/715 522/716
f 523/720 524/717 525/718 526/719
f 425/140 522/716 524/717 527/273
f 528/724 529/721 530/722 531/723
f 517/232 532/725 533/726 518/233
f 519/712 534/727 535/728 536/729
f 518/233 533/726 537/730
f 534/727 518/233 538/731
f 519/712 518/233 534/727
f 538/731 539/732 529/721 528/724
f 531/723 530/722 540/733 541/734
f 542/735 517/232 516/713
f 527/273 523/720 543/736 517/232
f 517/232 543/736 532/725
f 544/256 527/273 517/232 542/735
f 545/740 546/737 547/738 548/739
f 550/744 549/741 551/742 552/743
f 552/743 551/742 546/737 545/740
f 544/745 542/735 549/741 550/744
f 347/594 346/593 553/746
f 358/67 378/610 416/640 356/747
f 381/90 415/1357 423/1358
f 518/233 537/730 539/732 538/731
f 474/189 482/681 554/748 479/265
f 480/678 479/265 554/748
f 555/749 556/270 449/266 450/660
f 556/270 557/158 448/267 449/266
f 435/268 448/267 557/750 558/751
f 436/647 435/268 558/751 559/752
f 453/96 556/270 555/749 455/659
f 453/96 560/753 557/750 556/270
f 445/654 384/95 462/172 469/671
f 425/140 428/275 561/754 521/715
f 425/140 527/273 544/745 426/643
f 428/275 427/644 520/714 376/272
f 376/272 375/608 561/754 428/275
f 385/276 562/755 560/753 453/96
f 386/611 385/276 453/96 515/711
f 562/755 385/276 384/95 444/674
f 199/277 198/280 175/279 174/278
f 179/281 178/284 194/283 193/282
f 199/277 174/278 202/286 201/285
f 180/287 185/289 193/282 191/288
f 185/289 179/281 193/282
f 181/290 180/287 191/288
f 154/291 208/294 207/293 155/292
f 170/295 169/298 196/297 197/296
f 170/295 197/296 193/282 171/299
f 193/282 172/300 171/299
f 194/283 173/301 172/300 193/282
f 182/302 181/290 191/288 192/303
f 167/304 166/306 190/305
f 168/307 167/304 190/305 196/297
f 188/308 187/1359 195/310 189/309
f 169/298 168/307 196/297
f 187/1360 192/303 191/288 195/310
f 197/296 195/310 191/288 193/282
f 190/305 189/309 195/310 196/297
f 196/297 195/310 197/296
f 177/311 176/312 198/280 199/277
f 200/313 177/311 199/277 201/285
f 178/284 200/313 201/285 194/283
f 202/286 173/301 194/283 201/285
f 204/1361 148/314 212/1362
f 151/315 209/316 207/293 208/294
f 206/317 152/318 151/315 208/294
f 206/317 208/294 154/291 153/319
f 158/320 157/322 204/321
f 209/316 150/1363 205/323 207/293
f 150/1364 149/1365 210/1366 205/323
f 210/1367 156/1368 211/1369 205/323
f 155/292 207/293 205/323 211/1370
f 204/1371 210/1372 149/324 148/314
f 157/322 156/1373 210/1374 204/321
f 159/325 158/320 204/321 216/326
f 146/327 145/329 223/328
f 160/330 159/325 216/326 215/331
f 214/332 161/333 160/330 215/331
f 214/332 162/334 161/333
f 166/306 165/336 163/335 162/334
f 190/305 166/306 162/334 214/332
f 203/1375 188/1376 189/1377 229/1378
f 203/1379 229/1380 228/1381
f 216/326 228/1382 215/331
f 204/321 228/1383 216/326
f 217/1384 183/339 186/338 220/337
f 186/340 187/1385 219/1386 220/1387
f 135/1388 227/342 223/341 136/1389
f 224/1390 221/345 140/344 139/343
f 142/346 141/1391 221/1392 224/347
f 225/348 224/1393 139/350 138/349
f 143/1394 142/1395 224/1396 225/351
f 226/1397 225/1398 138/353 137/352
f 144/1399 143/1400 225/1401 226/354
f 223/1402 226/1403 137/1404 136/1405
f 145/1406 144/1407 226/1408 223/1409
f 147/1410 146/1411 223/356 227/355
f 233/357 147/1412 227/1413
f 244/358 277/361 70/360 69/359
f 227/342 132/362 131/1414
f 213/1415 147/1416 233/363
f 204/1417 213/1418 228/1419
f 229/1420 214/1421 215/1422 228/1423
f 189/1424 190/1425 214/332 229/1426
f 203/1427 228/1428 213/1429
f 187/1430 188/308 218/1431 219/1432
f 243/364 242/367 235/366 227/365
f 256/368 67/371 66/370 281/369
f 116/372 115/375 114/374 113/373
f 130/376 129/379 238/378 237/377
f 129/380 128/383 239/382 238/381
f 128/384 127/387 240/386 239/385
f 127/388 126/391 241/390 240/389
f 117/392 232/395 112/394 111/393
f 131/396 130/399 237/398 236/397
f 121/400 120/402 119/401 118/1433
f 131/403 236/404 231/1434
f 227/1435 131/1436 231/1437
f 232/1438 116/1439 113/1440 112/1441
f 183/1442 182/302 192/303 186/1443
f 187/1444 186/1445 192/303
f 213/1446 204/1447 212/1448 147/1449
f 203/1450 213/1451 233/363 234/405
f 234/406 233/357 227/1452 235/407
f 188/1453 203/1454 234/405 218/1455
f 218/1456 234/406 235/407 222/1457
f 222/1458 235/366 242/367
f 108/1459 242/367 243/364 109/1460
f 134/408 133/409 132/362
f 236/404 118/1461 117/1462 231/1463
f 237/398 121/1464 118/1465 236/397
f 238/378 122/1466 121/400 237/377
f 239/382 123/1467 122/1468 238/381
f 240/386 124/1469 123/1470 239/385
f 241/390 125/1471 124/1472 240/389
f 248/410 220/1473 219/1474 218/1475
f 231/411 117/1476 111/412 110/1477
f 243/364 231/411 110/1478
f 231/411 243/364 227/365
f 242/367 108/1479 107/413 222/1480
f 268/414 280/417 279/416 105/415
f 220/1481 248/419 247/418
f 247/418 248/419 230/1482 246/420
f 230/1483 248/410 218/1484 222/1485
f 230/1486 107/1487 244/421 246/420
f 107/413 230/1488 222/1489
f 184/1490 217/1491 220/1492 249/422
f 50/423 49/426 274/425 273/424
f 253/427 254/430 53/429 52/428
f 59/431 58/432 254/430 253/427
f 44/433 39/435 38/434 256/368
f 51/436 50/423 273/424 272/437
f 271/438 51/436 272/437
f 60/439 252/440 271/438
f 64/441 63/443 251/442
f 63/443 62/444 251/442
f 271/438 252/440 51/436
f 60/439 59/431 253/427 252/440
f 252/440 253/427 52/428 51/436
f 254/430 255/446 54/445 53/429
f 58/432 57/447 255/446 254/430
f 255/446 55/448 54/445
f 57/447 56/449 55/448 255/446
f 68/450 67/371 256/368 257/451
f 42/452 41/454 40/453
f 247/418 246/420 257/451 250/455
f 250/455 257/451 36/457 35/456
f 257/451 37/458 36/457
f 44/433 43/460 258/459 39/435
f 43/460 42/452 40/453 258/459
f 246/420 244/421 69/461
f 246/420 69/461 68/450 257/451
f 249/422 220/1493 247/418 250/455
f 31/462 30/465 261/464 262/463
f 249/422 250/455 265/466
f 1/1494 184/1495 249/422 265/466
f 29/467 28/469 270/468
f 262/463 261/464 26/471 25/470
f 29/467 270/468 261/464 30/465
f 32/472 31/462 262/463 260/473
f 260/473 262/463 25/470 24/474
f 259/475 35/456 34/477 263/476
f 19/478 18/481 14/480 13/479
f 260/473 23/483 22/482
f 33/484 32/472 260/473
f 260/473 24/474 23/483
f 263/476 260/473 22/482 21/485
f 34/477 33/484 260/473 263/476
f 259/475 263/476 21/485 20/486
f 259/475 19/478 13/479
f 18/481 264/488 15/487 14/480
f 264/488 17/490 16/489 15/487
f 259/475 20/486 19/478
f 265/466 259/475 13/479 12/491
f 250/455 35/456 259/475 265/466
f 1/1496 265/466 2/492
f 7/493 6/496 5/495 267/494
f 11/497 10/499 3/498 2/492
f 10/499 9/501 266/500 3/498
f 9/501 8/503 4/502 266/500
f 8/503 7/493 267/494 4/502
f 265/466 11/497 2/492
f 265/466 12/491 11/497
f 65/504 64/441 251/442
f 94/505 93/508 245/507 269/506
f 107/1497 106/509 277/361 244/358
f 268/414 73/511 72/510
f 77/512 76/515 75/514 74/513
f 74/513 278/516 77/512
f 88/517 87/520 84/519 83/518
f 269/506 245/507 80/522 79/521
f 93/508 92/525 91/524 90/523
f 245/507 81/526 80/522
f 90/523 89/527 245/507
f 93/508 90/523 245/507
f 89/527 88/517 83/518 82/528
f 87/520 86/530 85/529 84/519
f 95/531 94/505 269/506
f 278/516 269/506 78/532 77/512
f 269/506 79/521 78/532
f 104/533 95/531 269/506 278/516
f 101/534 100/537 99/536 98/535
f 103/538 102/541 97/540 96/539
f 102/541 101/534 98/535 97/540
f 104/533 103/538 96/539 95/531
f 165/336 164/542 163/335
f 227/342 135/543 134/408 132/362
f 243/364 110/1498 109/1499
f 245/507 89/527 82/528 81/526
f 261/464 270/468 27/544 26/471
f 28/469 27/544 270/468
f 61/545 60/439 271/438 275/546
f 275/546 271/438 272/437 46/547
f 273/424 47/548 46/547 272/437
f 274/425 48/549 47/548 273/424
f 251/442 62/444 61/545 275/546
f 251/442 275/546 46/547 276/550
f 38/434 37/458 257/451 256/368
f 268/414 72/510 71/551 280/417
f 268/414 105/415 104/533 278/516
f 280/417 277/361 106/509 279/416
f 277/361 280/417 71/551 70/360
f 281/369 251/442 276/550 45/552
f 66/370 65/504 251/442 281/369
f 45/552 44/433 256/368 281/369
f 174/2 175/3 889/1835 890/1836
f 175/3 198/4 888/1834 889/1835
f 178/8 179/5 883/1829 884/1830
f 202/10 174/2 890/1836 891/1837
f 185/13 180/11 881/1827 882/1828
f 179/5 185/13 882/1828 883/1829
f 180/11 181/14 880/1826 881/1827
f 154/15 155/16 708/1609 709/1610
f 169/22 170/19 895/1841 896/1842
f 170/19 171/23 894/1840 895/1841
f 171/23 172/24 893/1839 894/1840
f 172/24 173/25 892/1838 893/1839
f 181/14 182/26 879/1825 880/1826
f 166/32 167/30 898/1844 899/1845
f 167/30 168/33 897/1843 898/1844
f 168/33 169/22 896/1842 897/1843
f 198/4 176/36 887/1833 888/1834
f 176/36 177/35 886/1832 887/1833
f 177/35 200/37 885/1831 886/1832
f 200/37 178/8 884/1830 885/1831
f 173/25 202/10 891/1837 892/1838
f 212/1500 148/38 717/1620 718/1622
f 209/40 151/39 713/1614 714/1615
f 151/39 152/42 712/1613 713/1614
f 152/42 206/41 711/1612 712/1613
f 206/41 153/43 710/1611 711/1612
f 153/43 154/15 709/1610 710/1611
f 157/46 158/44 704/1603 705/1604
f 150/1502 209/40 714/1615 715/1617
f 149/1503 150/1504 715/1616 716/1619
f 211/1506 156/1507 706/1605 707/1608
f 155/16 211/1510 707/1607 708/1609
f 148/38 149/48 716/1618 717/1620
f 156/1512 157/46 705/1604 706/1606
f 158/44 159/49 906/1852 704/1603
f 145/53 146/51 720/1625 721/1628
f 159/49 160/54 905/1851 906/1852
f 160/54 161/57 904/1850 905/1851
f 161/57 162/58 903/1849 904/1850
f 162/58 163/59 902/1848 903/1849
f 165/61 166/32 899/1845 900/1846
f 183/64 217/1514 877/1821 878/1824
f 135/1516 136/66 731/1646 732/1649
f 139/68 140/69 727/1639 728/1641
f 140/69 221/70 726/1637 727/1639
f 221/1517 141/71 725/1635 726/1638
f 141/71 142/1520 724/1633 725/1636
f 138/74 139/75 728/1640 729/1643
f 142/1522 143/1523 723/1631 724/1634
f 137/77 138/78 729/1642 730/1645
f 143/1526 144/1527 722/1629 723/1632
f 136/1530 137/1531 730/1644 731/1647
f 144/1534 145/1535 721/1627 722/1630
f 146/1538 147/1539 719/1623 720/1626
f 69/84 70/85 800/1738 801/1740
f 131/1541 132/86 735/1652 736/1654
f 66/94 67/173 803/1742 804/1743
f 113/99 114/100 755/1685 756/1687
f 114/100 115/101 754/1684 755/1685
f 115/101 116/98 753/1682 754/1684
f 129/105 130/102 737/1655 738/1658
f 128/109 129/106 738/1657 739/1660
f 127/113 128/110 739/1659 740/1662
f 241/116 126/117 741/1663 742/1664
f 126/117 127/114 740/1661 741/1663
f 111/119 112/120 757/1688 758/1691
f 232/121 117/118 751/1678 752/1681
f 130/125 131/122 736/1653 737/1656
f 118/1542 119/127 749/1675 750/1677
f 119/127 120/128 748/1674 749/1675
f 120/128 121/126 747/1673 748/1674
f 112/1544 113/1545 756/1686 757/1689
f 116/1548 232/1549 752/1680 753/1683
f 182/26 183/1552 878/1823 879/1825
f 147/1553 212/1554 718/1621 719/1624
f 108/1555 109/1556 760/1694 761/1697
f 132/86 133/134 734/1651 735/1652
f 133/134 134/87 733/1650 734/1651
f 117/1558 118/1559 750/1676 751/1679
f 121/126 122/1562 746/1671 747/1673
f 122/1564 123/1565 745/1669 746/1672
f 123/1568 124/1569 744/1667 745/1670
f 124/1572 125/1573 743/1665 744/1668
f 125/1576 241/116 742/1664 743/1666
f 110/1578 111/137 758/1690 759/1693
f 107/138 108/1580 761/1696 762/1699
f 105/141 279/274 764/1701 765/1702
f 217/1581 184/1582 876/1819 877/1822
f 274/269 49/150 821/1761 822/1762
f 49/150 50/147 820/1760 821/1761
f 52/152 53/153 817/1757 818/1758
f 58/156 59/155 811/1751 812/1752
f 38/181 39/182 834/1776 835/1777
f 50/147 51/159 819/1759 820/1760
f 63/164 64/163 806/1745 807/1746
f 62/165 63/164 807/1746 808/1747
f 59/155 60/1583 810/1749 811/1751
f 51/159 52/152 818/1758 819/1759
f 53/153 54/166 816/1756 817/1757
f 57/168 58/156 812/1752 813/1753
f 54/166 55/169 815/1755 816/1756
f 55/169 56/170 814/1754 815/1755
f 56/170 57/168 813/1753 814/1754
f 67/173 68/171 802/1741 803/1742
f 40/175 41/176 831/1773 832/1774
f 41/176 42/174 830/1772 831/1773
f 35/178 36/179 837/1779 838/1780
f 36/179 37/180 836/1778 837/1779
f 39/182 258/184 833/1775 834/1776
f 43/185 44/1584 828/1769 829/1771
f 258/184 40/175 832/1774 833/1775
f 42/174 43/185 829/1771 830/1772
f 68/171 69/1585 801/1739 802/1741
f 30/190 31/187 842/1784 843/1785
f 184/1586 1/1587 875/1817 876/1820
f 28/194 29/195 844/1786 845/1787
f 25/196 26/192 847/1789 848/1790
f 29/195 30/190 843/1785 844/1786
f 31/187 32/197 841/1783 842/1784
f 24/199 25/196 848/1790 849/1791
f 34/202 35/178 838/1780 839/1781
f 13/204 14/205 860/1802 861/1803
f 18/206 19/203 854/1796 855/1797
f 22/207 23/208 850/1792 851/1793
f 32/197 33/209 840/1782 841/1783
f 23/208 24/199 849/1791 850/1792
f 21/210 22/207 851/1793 852/1794
f 33/209 34/202 839/1781 840/1782
f 20/211 21/210 852/1794 853/1795
f 14/205 15/212 859/1801 860/1802
f 264/213 18/206 855/1797 856/1798
f 15/212 16/214 858/1800 859/1801
f 16/214 17/215 857/1799 858/1800
f 17/215 264/213 856/1798 857/1799
f 19/203 20/211 853/1795 854/1796
f 12/216 13/204 861/1803 862/1804
f 1/1589 2/217 874/1816 875/1818
f 267/219 5/220 869/1811 870/1812
f 5/220 6/221 868/1810 869/1811
f 6/221 7/218 867/1809 868/1810
f 2/217 3/223 873/1815 874/1816
f 10/224 11/222 863/1805 864/1806
f 3/223 266/225 872/1814 873/1815
f 9/226 10/224 864/1806 865/1807
f 266/225 4/227 871/1813 872/1814
f 8/228 9/226 865/1807 866/1808
f 4/227 267/219 870/1812 871/1813
f 7/218 8/228 866/1808 867/1809
f 11/222 12/216 862/1804 863/1805
f 64/163 65/97 805/1744 806/1745
f 93/234 94/231 776/1714 777/1715
f 106/139 107/1591 762/1698 763/1700
f 72/230 73/235 797/1735 798/1736
f 74/237 75/238 795/1733 796/1734
f 75/238 76/239 794/1732 795/1733
f 76/239 77/236 793/1731 794/1732
f 73/235 74/237 796/1734 797/1735
f 83/241 84/242 786/1724 787/1725
f 87/243 88/240 782/1720 783/1721
f 79/244 80/245 790/1728 791/1729
f 90/246 91/247 779/1717 780/1718
f 91/247 92/248 778/1716 779/1717
f 92/248 93/234 777/1715 778/1716
f 80/245 81/249 789/1727 790/1728
f 89/251 90/246 780/1718 781/1719
f 82/250 83/241 787/1725 788/1726
f 88/240 89/251 781/1719 782/1720
f 84/242 85/252 785/1723 786/1724
f 85/252 86/253 784/1722 785/1723
f 86/253 87/243 783/1721 784/1722
f 94/231 95/254 775/1713 776/1714
f 77/236 78/255 792/1730 793/1731
f 78/255 79/244 791/1729 792/1730
f 98/258 99/259 771/1709 772/1710
f 99/259 100/260 770/1708 771/1709
f 100/260 101/257 769/1707 770/1708
f 96/262 97/263 773/1711 774/1712
f 102/264 103/261 767/1705 768/1706
f 97/263 98/258 772/1710 773/1711
f 101/257 102/264 768/1706 769/1707
f 95/254 96/262 774/1712 775/1713
f 103/261 104/1593 766/1703 767/1705
f 163/59 164/60 901/1847 902/1848
f 164/60 165/61 900/1846 901/1847
f 134/87 135/88 732/1648 733/1650
f 109/1594 110/1595 759/1692 760/1695
f 81/249 82/250 788/1726 789/1727
f 26/192 27/193 846/1788 847/1789
f 27/193 28/194 845/1787 846/1788
f 60/1598 61/160 809/1748 810/1750
f 46/1599 47/148 824/1764 825/1766
f 47/148 48/149 823/1763 824/1764
f 48/149 274/269 822/1762 823/1763
f 61/160 62/165 808/1747 809/1748
f 276/271 46/1600 825/1765 826/1767
f 37/180 38/181 835/1777 836/1778
f 71/229 72/230 798/1736 799/1737
f 104/1601 105/141 765/1702 766/1704
f 279/274 106/139 763/1700 764/1701
f 70/85 71/229 799/1737 800/1738
f 45/157 276/271 826/1767 827/1768
f 65/97 66/94 804/1743 805/1744
f 44/1602 45/157 827/1768 828/1770
f 563/756 596/759 595/758 564/757
f 564/757 595/758 594/761 565/760
f 565/760 594/761 593/763 566/762
f 566/762 593/763 602/765 567/764
f 567/764 602/765 601/767 568/766
f 568/766 601/767 600/769 569/768
f 569/768 600/769 599/771 570/770
f 570/770 599/771 598/773 571/772
f 571/772 598/773 597/775 572/774
f 572/774 597/775 596/777 563/776
f 567/764 568/766 566/762
f 568/766 569/768 565/760 566/762
f 570/770 571/772 563/776 564/757
f 569/768 570/770 564/757 565/760
f 571/772 572/774 563/776
f 584/778 575/781 576/780 583/779
f 585/782 574/783 575/781 584/778
f 586/784 573/785 574/783 585/782
f 587/786 582/789 573/788 586/787
f 588/790 581/791 582/789 587/786
f 589/792 580/793 581/791 588/790
f 590/794 579/795 580/793 589/792
f 591/796 578/797 579/795 590/794
f 592/798 577/799 578/797 591/796
f 583/779 576/780 577/799 592/798
f 594/761 584/778 583/779 593/763
f 595/758 585/782 584/778 594/761
f 596/759 586/784 585/782 595/758
f 597/775 587/786 586/787 596/777
f 598/773 588/790 587/786 597/775
f 599/771 589/792 588/790 598/773
f 600/769 590/794 589/792 599/771
f 601/767 591/796 590/794 600/769
f 602/765 592/798 591/796 601/767
f 593/763 583/779 592/798 602/765
f 573/800 603/803 604/802 574/801
f 574/804 604/807 605/806 575/805
f 575/808 605/811 606/810 576/809
f 576/812 606/815 607/814 577/813
f 577/816 607/819 608/818 578/817
f 578/820 608/823 609/822 579/821
f 579/824 609/827 610/826 580/825
f 580/828 610/831 611/830 581/829
f 581/832 611/835 612/834 582/833
f 582/836 612/839 603/838 573/837
f 603/840 613/843 614/842 604/841
f 604/844 614/847 615/846 605/845
f 605/848 615/851 616/850 606/849
f 606/852 616/855 617/854 607/853
f 607/856 617/859 618/858 608/857
f 608/860 618/863 619/862 609/861
f 609/864 619/867 620/866 610/865
f 610/868 620/871 621/870 611/869
f 611/872 621/875 622/874 612/873
f 612/876 622/879 613/878 603/877
f 613/880 623/883 624/882 614/881
f 614/884 624/887 625/886 615/885
f 615/888 625/891 626/890 616/889
f 616/892 626/895 627/894 617/893
f 617/896 627/899 628/898 618/897
f 618/900 628/903 629/902 619/901
f 619/904 629/907 630/906 620/905
f 620/908 630/911 631/910 621/909
f 621/912 631/915 632/914 622/913
f 622/916 632/919 623/918 613/917
f 623/920 633/923 634/922 624/921
f 624/924 634/927 635/926 625/925
f 625/928 635/931 636/930 626/929
f 626/932 636/935 637/934 627/933
f 627/936 637/939 638/938 628/937
f 628/940 638/943 639/942 629/941
f 629/944 639/947 640/946 630/945
f 630/948 640/951 641/950 631/949
f 631/952 641/955 642/954 632/953
f 632/956 642/959 633/958 623/957
f 633/960 643/963 644/962 634/961
f 634/964 644/967 645/966 635/965
f 635/968 645/971 646/970 636/969
f 636/972 646/975 647/974 637/973
f 637/976 647/979 648/978 638/977
f 638/980 648/983 649/982 639/981
f 639/984 649/987 650/986 640/985
f 640/988 650/991 651/990 641/989
f 641/992 651/995 652/994 642/993
f 642/996 652/999 643/998 633/997
f 643/1000 653/1003 654/1002 644/1001
f 644/1004 654/1007 655/1006 645/1005
f 645/1008 655/1011 656/1010 646/1009
f 646/1012 656/1015 657/1014 647/1013
f 647/1016 657/1019 658/1018 648/1017
f 648/1020 658/1023 659/1022 649/1021
f 649/1024 659/1027 660/1026 650/1025
f 650/1028 660/1031 661/1030 651/1029
f 651/1032 661/1035 662/1034 652/1033
f 652/1036 662/1039 653/1038 643/1037
f 653/1040 663/1043 664/1042 654/1041
f 654/1044 664/1047 665/1046 655/1045
f 655/1048 665/1051 666/1050 656/1049
f 656/1052 666/1055 667/1054 657/1053
f 657/1056 667/1059 668/1058 658/1057
f 658/1060 668/1063 669/1062 659/1061
f 659/1064 669/1067 670/1066 660/1065
f 660/1068 670/1071 671/1070 661/1069
f 661/1072 671/1075 672/1074 662/1073
f 662/1076 672/1079 663/1078 653/1077
f 663/1080 673/1083 674/1082 664/1081
f 664/1084 674/1087 675/1086 665/1085
f 665/1088 675/1091 676/1090 666/1089
f 666/1092 676/1095 677/1094 667/1093
f 667/1096 677/1099 678/1098 668/1097
f 668/1100 678/1103 679/1102 669/1101
f 669/1104 679/1107 680/1106 670/1105
f 670/1108 680/1111 681/1110 671/1109
f 671/1112 681/1115 682/1114 672/1113
f 672/1116 682/1119 673/1118 663/1117
f 673/1120 683/1123 684/1122 674/1121
f 674/1124 684/1127 685/1126 675/1125
f 675/1128 685/1131 686/1130 676/1129
f 676/1132 686/1135 687/1134 677/1133
f 677/1136 687/1139 688/1138 678/1137
f 678/1140 688/1143 689/1142 679/1141
f 679/1144 689/1147 690/1146 680/1145
f 680/1148 690/1151 691/1150 681/1149
f 681/1152 691/1155 692/1154 682/1153
f 682/1156 692/1159 683/1158 673/1157
f 683/1160 693/1163 694/1162 684/1161
f 684/1164 694/1167 695/1166 685/1165
f 685/1168 695/1171 696/1170 686/1169
f 686/1172 696/1175 697/1174 687/1173
f 687/1176 697/1179 698/1178 688/1177
f 688/1180 698/1183 699/1182 689/1181
f 689/1184 699/1187 700/1186 690/1185
f 690/1188 700/1191 701/1190 691/1189
f 691/1192 701/1195 702/1194 692/1193
f 692/1196 702/1199 693/1198 683/1197
f 693/1200 703/1202 694/1201
f 694/1203 703/1205 695/1204
f 695/1206 703/1208 696/1207
f 696/1209 703/1211 697/1210
f 697/1212 703/1214 698/1213
f 698/1215 703/1217 699/1216
f 699/1218 703/1220 700/1219
f 700/1221 703/1223 701/1222
f 701/1224 703/1226 702/1225
f 702/1227 703/1229 693/1228
f 705/1604 704/1603 328/584 329/583
f 706/1606 705/1604 329/583 335/1513
f 707/1608 706/1605 335/1508 334/1509
f 708/1609 707/1607 334/1511 297/563
f 709/1610 708/1609 297/563 296/562
f 710/1611 709/1610 296/562 327/582
f 711/1612 710/1611 327/582 325/581
f 712/1613 711/1612 325/581 326/580
f 713/1614 712/1613 326/580 323/579
f 714/1615 713/1614 323/579 324/578
f 715/1617 714/1615 324/578 331/585
f 716/1619 715/1616 331/585 333/1505
f 717/1620 716/1618 333/586 322/577
f 718/1622 717/1620 322/577 321/1501
f 719/1624 718/1621 321/637 371/636
f 720/1626 719/1623 371/606 338/1540
f 721/1628 720/1625 338/589 340/588
f 722/1630 721/1627 340/1536 370/1537
f 723/1632 722/1629 370/1528 367/1529
f 724/1634 723/1631 367/1524 363/1525
f 725/1636 724/1633 363/601 364/1521
f 726/1638 725/1635 364/1518 362/1519
f 727/1639 726/1637 362/600 361/599
f 728/1641 727/1639 361/599 359/598
f 729/1643 728/1640 359/603 365/602
f 730/1645 729/1642 365/605 368/604
f 731/1647 730/1644 368/1532 357/1533
f 732/1649 731/1646 357/597 356/596
f 733/1650 732/1648 356/747 416/640
f 734/1651 733/1650 416/640 417/639
f 735/1652 734/1651 417/639 378/610
f 736/1654 735/1652 378/610 377/609
f 737/1656 736/1653 377/631 393/630
f 738/1658 737/1655 393/618 395/617
f 739/1660 738/1657 395/620 397/619
f 740/1662 739/1659 397/622 399/621
f 741/1663 740/1661 399/625 401/624
f 742/1664 741/1663 401/624 400/623
f 743/1666 742/1664 400/623 421/1577
f 744/1668 743/1665 421/1574 420/1575
f 745/1670 744/1667 420/1570 419/1571
f 746/1672 745/1669 419/1566 418/1567
f 747/1673 746/1671 418/1563 408/634
f 748/1674 747/1673 408/634 410/633
f 749/1675 748/1674 410/633 409/632
f 750/1677 749/1675 409/632 407/1543
f 751/1679 750/1676 407/1560 402/1561
f 752/1681 751/1678 402/629 405/628
f 753/1683 752/1680 405/1550 388/1551
f 754/1684 753/1682 388/616 391/615
f 755/1685 754/1684 391/615 390/614
f 756/1687 755/1685 390/614 389/613
f 757/1689 756/1686 389/1546 404/1547
f 758/1691 757/1688 404/627 403/626
f 759/1693 758/1690 403/641 423/1579
f 760/1695 759/1692 423/1596 415/1597
f 761/1697 760/1694 415/1557 414/638
f 762/1699 761/1696 414/638 424/642
f 763/1700 762/1698 424/1592 520/714
f 764/1701 763/1700 520/714 427/644
f 765/1702 764/1701 427/644 426/643
f 766/1704 765/1702 426/643 544/745
f 767/1705 766/1703 544/745 550/744
f 768/1706 767/1705 550/744 552/743
f 769/1707 768/1706 552/743 545/740
f 770/1708 769/1707 545/740 548/739
f 771/1709 770/1708 548/739 547/738
f 772/1710 771/1709 547/738 546/737
f 773/1711 772/1710 546/737 551/742
f 774/1712 773/1711 551/742 549/741
f 775/1713 774/1712 549/741 542/735
f 776/1714 775/1713 542/735 516/713
f 777/1715 776/1714 516/713 519/712
f 778/1716 777/1715 519/712 536/729
f 779/1717 778/1716 536/729 535/728
f 780/1718 779/1717 535/728 534/727
f 781/1719 780/1718 534/727 538/731
f 782/1720 781/1719 538/731 528/724
f 783/1721 782/1720 528/724 531/723
f 784/1722 783/1721 531/723 541/734
f 785/1723 784/1722 541/734 540/733
f 786/1724 785/1723 540/733 530/722
f 787/1725 786/1724 530/722 529/721
f 788/1726 787/1725 529/721 539/732
f 789/1727 788/1726 539/732 537/730
f 790/1728 789/1727 537/730 533/726
f 791/1729 790/1728 533/726 532/725
f 792/1730 791/1729 532/725 543/736
f 793/1731 792/1730 543/736 523/720
f 794/1732 793/1731 523/720 526/719
f 795/1733 794/1732 526/719 525/718
f 796/1734 795/1733 525/718 524/717
f 797/1735 796/1734 524/717 522/716
f 798/1736 797/1735 522/716 521/715
f 799/1737 798/1736 521/715 561/754
f 800/1738 799/1737 561/754 375/608
f 801/1740 800/1738 375/608 374/607
f 802/1741 801/1739 374/675 461/665
f 803/1742 802/1741 461/665 387/612
f 804/1743 803/1742 387/612 386/611
f 805/1744 804/1743 386/611 515/711
f 806/1745 805/1744 515/711 452/658
f 807/1746 806/1745 452/658 454/657
f 808/1747 807/1746 454/657 455/659
f 809/1748 808/1747 455/659 555/749
f 810/1750 809/1748 555/749 450/660
f 811/1751 810/1749 450/660 442/653
f 812/1752 811/1751 442/653 443/652
f 813/1753 812/1752 443/652 458/662
f 814/1754 813/1753 458/662 460/664
f 815/1755 814/1754 460/664 459/663
f 816/1756 815/1755 459/663 456/661
f 817/1757 816/1756 456/661 440/651
f 818/1758 817/1757 440/651 439/650
f 819/1759 818/1758 439/650 447/656
f 820/1760 819/1759 447/656 434/649
f 821/1761 820/1760 434/649 437/648
f 822/1762 821/1761 437/648 436/647
f 823/1763 822/1762 436/647 559/752
f 824/1764 823/1763 559/752 558/751
f 825/1766 824/1764 558/751 557/750
f 826/1767 825/1765 557/750 560/753
f 827/1768 826/1767 560/753 562/755
f 828/1770 827/1768 562/755 444/674
f 829/1771 828/1769 444/674 471/673
f 830/1772 829/1771 471/673 463/668
f 831/1773 830/1772 463/668 465/667
f 832/1774 831/1773 465/667 464/666
f 833/1775 832/1774 464/666 470/672
f 834/1776 833/1775 470/672 446/655
f 835/1777 834/1776 446/655 445/654
f 836/1778 835/1777 445/654 469/671
f 837/1779 836/1778 469/671 468/670
f 838/1780 837/1779 468/670 467/669
f 839/1781 838/1780 467/669 488/684
f 840/1782 839/1781 488/684 495/691
f 841/1783 840/1782 495/691 483/682
f 842/1784 841/1783 483/682 472/677
f 843/1785 842/1784 472/677 475/676
f 844/1786 843/1785 475/676 478/679
f 845/1787 844/1786 478/679 480/678
f 846/1788 845/1787 480/678 554/748
f 847/1789 846/1788 554/748 482/681
f 848/1790 847/1789 482/681 481/680
f 849/1791 848/1790 481/680 485/683
f 850/1792 849/1791 485/683 494/690
f 851/1793 850/1792 494/690 493/689
f 852/1794 851/1793 493/689 496/692
f 853/1795 852/1794 496/692 497/693
f 854/1796 853/1795 497/693 489/688
f 855/1797 854/1796 489/688 492/687
f 856/1798 855/1797 492/687 499/695
f 857/1799 856/1798 499/695 501/697
f 858/1800 857/1799 501/697 500/696
f 859/1801 858/1800 500/696 498/694
f 860/1802 859/1801 498/694 491/686
f 861/1803 860/1802 491/686 490/685
f 862/1804 861/1803 490/685 502/698
f 863/1805 862/1804 502/698 508/706
f 864/1806 863/1805 508/706 510/705
f 865/1807 864/1806 510/705 512/708
f 866/1808 865/1807 512/708 514/710
f 867/1809 866/1808 514/710 504/703
f 868/1810 867/1809 504/703 507/702
f 869/1811 868/1810 507/702 506/701
f 870/1812 869/1811 506/701 505/700
f 871/1813 870/1812 505/700 513/709
f 872/1814 871/1813 513/709 511/707
f 873/1815 872/1814 511/707 509/704
f 874/1816 873/1815 509/704 503/699
f 875/1818 874/1816 503/699 477/1590
f 876/1820 875/1817 477/1588 433/646
f 877/1822 876/1819 433/646 352/645
f 878/1824 877/1821 352/1515 354/595
f 879/1825 878/1823 354/635 307/569
f 880/1826 879/1825 307/569 295/561
f 881/1827 880/1826 295/561 292/560
f 882/1828 881/1827 292/560 294/559
f 883/1829 882/1828 294/559 286/557
f 884/1830 883/1829 286/557 289/556
f 885/1831 884/1830 289/556 319/575
f 886/1832 885/1831 319/575 317/574
f 887/1833 886/1832 317/574 318/573
f 888/1834 887/1833 318/573 285/555
f 889/1835 888/1834 285/555 284/554
f 890/1836 889/1835 284/554 283/553
f 891/1837 890/1836 283/553 291/558
f 892/1838 891/1837 291/558 306/568
f 893/1839 892/1838 306/568 305/567
f 894/1840 893/1839 305/567 304/566
f 895/1841 894/1840 304/566 300/565
f 896/1842 895/1841 300/565 303/564
f 897/1843 896/1842 303/564 312/572
f 898/1844 897/1843 312/572 309/571
f 899/1845 898/1844 309/571 311/570
f 900/1846 899/1845 311/570 347/594
f 901/1847 900/1846 347/594 553/746
f 902/1848 901/1847 553/746 346/593
f 903/1849 902/1848 346/593 345/592
f 904/1850 903/1849 345/592 344/591
f 905/1851 904/1850 344/591 341/590
f 906/1852 905/1851 341/590 336/587
f 704/1603 906/1852 336/587 328/584
f 527/273 524/717 523/720
f 268/414 278/516 74/513 73/511
